 <svg viewBox="0 0 1500 600" width="1500" height="600" xmlns="http://www.w3.org/2000/svg" style="background-color: #151823;"> <rect x="0" y="0" class="b" style="animation-delay: 0s;" /> <rect x="90" y="0" class="b" style="animation-delay: 0s;" /> <rect x="120" y="0" class="b" style="animation-delay: 0s;" /> <rect x="150" y="0" class="b" style="animation-delay: 0s;" /> <rect x="180" y="0" class="b" style="animation-delay: 0s;" /> <rect x="210" y="0" class="b" style="animation-delay: 0s;" /> <rect x="300" y="0" class="b" style="animation-delay: 0s;" /> <rect x="330" y="0" class="b" style="animation-delay: 0s;" /> <rect x="360" y="0" class="b" style="animation-delay: 0s;" /> <rect x="390" y="0" class="b" style="animation-delay: 0s;" /> <rect x="420" y="0" class="b" style="animation-delay: 0s;" /> <rect x="450" y="0" class="b" style="animation-delay: 0s;" /> <rect x="480" y="0" class="b" style="animation-delay: 0s;" /> <rect x="660" y="0" class="b" style="animation-delay: 0s;" /> <rect x="720" y="0" class="b" style="animation-delay: 0s;" /> <rect x="780" y="0" class="b" style="animation-delay: 0s;" /> <rect x="840" y="0" class="b" style="animation-delay: 0s;" /> <rect x="870" y="0" class="b" style="animation-delay: 0s;" /> <rect x="930" y="0" class="b" style="animation-delay: 0s;" /> <rect x="960" y="0" class="b" style="animation-delay: 0s;" /> <rect x="1020" y="0" class="b" style="animation-delay: 0s;" /> <rect x="1050" y="0" class="b" style="animation-delay: 0s;" /> <rect x="1080" y="0" class="b" style="animation-delay: 0s;" /> <rect x="1170" y="0" class="b" style="animation-delay: 0s;" /> <rect x="1200" y="0" class="b" style="animation-delay: 0s;" /> <rect x="1230" y="0" class="b" style="animation-delay: 0s;" /> <rect x="1260" y="0" class="b" style="animation-delay: 0s;" /> <rect x="1290" y="0" class="b" style="animation-delay: 0s;" /> <rect x="1320" y="0" class="b" style="animation-delay: 0s;" /> <rect x="1350" y="0" class="b" style="animation-delay: 0s;" /> <rect x="1410" y="0" class="b" style="animation-delay: 0s;" /> <rect x="1470" y="0" class="b" style="animation-delay: 0s;" /> <rect x="1560" y="0" class="b" style="animation-delay: 0s;" /> <rect x="1590" y="0" class="b" style="animation-delay: 0s;" /> <rect x="1620" y="0" class="b" style="animation-delay: 0s;" /> <rect x="1680" y="0" class="b" style="animation-delay: 0s;" /> <rect x="1740" y="0" class="b" style="animation-delay: 0s;" /> <rect x="1770" y="0" class="b" style="animation-delay: 0s;" /> <rect x="0" y="30" class="b" style="animation-delay: 0s;" /> <rect x="30" y="30" class="b" style="animation-delay: 0.02s;" /> <rect x="60" y="30" class="b" style="animation-delay: 0.04s;" /> <rect x="90" y="30" class="b" style="animation-delay: 0.06s;" /> <rect x="210" y="30" class="b" style="animation-delay: 0.14s;" /> <rect x="240" y="30" class="b" style="animation-delay: 0.16s;" /> <rect x="270" y="30" class="b" style="animation-delay: 0.18s;" /> <rect x="300" y="30" class="b" style="animation-delay: 0.2s;" /> <rect x="480" y="30" class="b" style="animation-delay: 0.32s;" /> <rect x="510" y="30" class="b" style="animation-delay: 0.34s;" /> <rect x="630" y="30" class="b" style="animation-delay: 0.42s;" /> <rect x="660" y="30" class="b" style="animation-delay: 0.44s;" /> <rect x="690" y="30" class="b" style="animation-delay: 0.46s;" /> <rect x="720" y="30" class="b" style="animation-delay: 0.48s;" /> <rect x="750" y="30" class="b" style="animation-delay: 0.5s;" /> <rect x="780" y="30" class="b" style="animation-delay: 0.52s;" /> <rect x="810" y="30" class="b" style="animation-delay: 0.54s;" /> <rect x="840" y="30" class="b" style="animation-delay: 0.56s;" /> <rect x="870" y="30" class="b" style="animation-delay: 0.58s;" /> <rect x="900" y="30" class="b" style="animation-delay: 0.6s;" /> <rect x="930" y="30" class="b" style="animation-delay: 0.62s;" /> <rect x="960" y="30" class="b" style="animation-delay: 0.64s;" /> <rect x="990" y="30" class="b" style="animation-delay: 0.66s;" /> <rect x="1020" y="30" class="b" style="animation-delay: 0.68s;" /> <rect x="1080" y="30" class="b" style="animation-delay: 0.72s;" /> <rect x="1110" y="30" class="b" style="animation-delay: 0.74s;" /> <rect x="1140" y="30" class="b" style="animation-delay: 0.76s;" /> <rect x="1170" y="30" class="b" style="animation-delay: 0.78s;" /> <rect x="1350" y="30" class="b" style="animation-delay: 0.9s;" /> <rect x="1380" y="30" class="b" style="animation-delay: 0.92s;" /> <rect x="1410" y="30" class="b" style="animation-delay: 0.94s;" /> <rect x="1440" y="30" class="b" style="animation-delay: 0.96s;" /> <rect x="1470" y="30" class="b" style="animation-delay: 0.98s;" /> <rect x="1500" y="30" class="b" style="animation-delay: 1s;" /> <rect x="1530" y="30" class="b" style="animation-delay: 1.02s;" /> <rect x="1560" y="30" class="b" style="animation-delay: 1.04s;" /> <rect x="1620" y="30" class="b" style="animation-delay: 1.08s;" /> <rect x="1650" y="30" class="b" style="animation-delay: 1.1s;" /> <rect x="1680" y="30" class="b" style="animation-delay: 1.12s;" /> <rect x="1710" y="30" class="b" style="animation-delay: 1.14s;" /> <rect x="1740" y="30" class="b" style="animation-delay: 1.16s;" /> <rect x="1770" y="30" class="b" style="animation-delay: 1.18s;" /> <rect x="0" y="60" class="b" style="animation-delay: 0s;" /> <rect x="90" y="60" class="b" style="animation-delay: 0.12s;" /> <rect x="120" y="60" class="b" style="animation-delay: 0.16s;" /> <rect x="180" y="60" class="b" style="animation-delay: 0.24s;" /> <rect x="210" y="60" class="b" style="animation-delay: 0.28s;" /> <rect x="300" y="60" class="b" style="animation-delay: 0.4s;" /> <rect x="330" y="60" class="b" style="animation-delay: 0.44s;" /> <rect x="450" y="60" class="b" style="animation-delay: 0.6s;" /> <rect x="480" y="60" class="b" style="animation-delay: 0.64s;" /> <rect x="510" y="60" class="b" style="animation-delay: 0.68s;" /> <rect x="540" y="60" class="b" style="animation-delay: 0.72s;" /> <rect x="600" y="60" class="b" style="animation-delay: 0.8s;" /> <rect x="630" y="60" class="b" style="animation-delay: 0.84s;" /> <rect x="1020" y="60" class="b" style="animation-delay: 1.36s;" /> <rect x="1050" y="60" class="b" style="animation-delay: 1.4s;" /> <rect x="1080" y="60" class="b" style="animation-delay: 1.44s;" /> <rect x="1170" y="60" class="b" style="animation-delay: 1.56s;" /> <rect x="1200" y="60" class="b" style="animation-delay: 1.6s;" /> <rect x="1320" y="60" class="b" style="animation-delay: 1.76s;" /> <rect x="1350" y="60" class="b" style="animation-delay: 1.8s;" /> <rect x="1560" y="60" class="b" style="animation-delay: 2.08s;" /> <rect x="1590" y="60" class="b" style="animation-delay: 2.12s;" /> <rect x="1620" y="60" class="b" style="animation-delay: 2.16s;" /> <rect x="1770" y="60" class="b" style="animation-delay: 2.36s;" /> <rect x="0" y="90" class="b" style="animation-delay: 0s;" /> <rect x="30" y="90" class="b" style="animation-delay: 0.06s;" /> <rect x="60" y="90" class="b" style="animation-delay: 0.12s;" /> <rect x="90" y="90" class="b" style="animation-delay: 0.18s;" /> <rect x="120" y="90" class="b" style="animation-delay: 0.24s;" /> <rect x="150" y="90" class="b" style="animation-delay: 0.3s;" /> <rect x="180" y="90" class="b" style="animation-delay: 0.36s;" /> <rect x="210" y="90" class="b" style="animation-delay: 0.42s;" /> <rect x="240" y="90" class="b" style="animation-delay: 0.48s;" /> <rect x="270" y="90" class="b" style="animation-delay: 0.54s;" /> <rect x="300" y="90" class="b" style="animation-delay: 0.6s;" /> <rect x="330" y="90" class="b" style="animation-delay: 0.66s;" /> <rect x="360" y="90" class="b" style="animation-delay: 0.72s;" /> <rect x="420" y="90" class="b" style="animation-delay: 0.84s;" /> <rect x="450" y="90" class="b" style="animation-delay: 0.9s;" /> <rect x="540" y="90" class="b" style="animation-delay: 1.08s;" /> <rect x="570" y="90" class="b" style="animation-delay: 1.14s;" /> <rect x="600" y="90" class="b" style="animation-delay: 1.2s;" /> <rect x="630" y="90" class="b" style="animation-delay: 1.26s;" /> <rect x="660" y="90" class="b" style="animation-delay: 1.32s;" /> <rect x="990" y="90" class="b" style="animation-delay: 1.98s;" /> <rect x="1020" y="90" class="b" style="animation-delay: 2.04s;" /> <rect x="1080" y="90" class="b" style="animation-delay: 2.16s;" /> <rect x="1110" y="90" class="b" style="animation-delay: 2.22s;" /> <rect x="1140" y="90" class="b" style="animation-delay: 2.28s;" /> <rect x="1170" y="90" class="b" style="animation-delay: 2.34s;" /> <rect x="1200" y="90" class="b" style="animation-delay: 2.4s;" /> <rect x="1230" y="90" class="b" style="animation-delay: 2.46s;" /> <rect x="1290" y="90" class="b" style="animation-delay: 2.58s;" /> <rect x="1320" y="90" class="b" style="animation-delay: 2.64s;" /> <rect x="1350" y="90" class="b" style="animation-delay: 2.7s;" /> <rect x="1380" y="90" class="b" style="animation-delay: 2.76s;" /> <rect x="1530" y="90" class="b" style="animation-delay: 3.06s;" /> <rect x="1560" y="90" class="b" style="animation-delay: 3.12s;" /> <rect x="1620" y="90" class="b" style="animation-delay: 3.24s;" /> <rect x="1650" y="90" class="b" style="animation-delay: 3.3s;" /> <rect x="1740" y="90" class="b" style="animation-delay: 3.48s;" /> <rect x="1770" y="90" class="b" style="animation-delay: 3.54s;" /> <rect x="0" y="120" class="b" style="animation-delay: 0s;" /> <rect x="360" y="120" class="b" style="animation-delay: 0.96s;" /> <rect x="390" y="120" class="b" style="animation-delay: 1.04s;" /> <rect x="420" y="120" class="b" style="animation-delay: 1.12s;" /> <rect x="450" y="120" class="b" style="animation-delay: 1.2s;" /> <rect x="480" y="120" class="b" style="animation-delay: 1.28s;" /> <rect x="510" y="120" class="b" style="animation-delay: 1.36s;" /> <rect x="540" y="120" class="b" style="animation-delay: 1.44s;" /> <rect x="660" y="120" class="b" style="animation-delay: 1.76s;" /> <rect x="690" y="120" class="b" style="animation-delay: 1.84s;" /> <rect x="960" y="120" class="b" style="animation-delay: 2.56s;" /> <rect x="990" y="120" class="b" style="animation-delay: 2.64s;" /> <rect x="1020" y="120" class="b" style="animation-delay: 2.72s;" /> <rect x="1050" y="120" class="b" style="animation-delay: 2.8s;" /> <rect x="1080" y="120" class="b" style="animation-delay: 2.88s;" /> <rect x="1230" y="120" class="b" style="animation-delay: 3.28s;" /> <rect x="1260" y="120" class="b" style="animation-delay: 3.36s;" /> <rect x="1290" y="120" class="b" style="animation-delay: 3.44s;" /> <rect x="1380" y="120" class="b" style="animation-delay: 3.68s;" /> <rect x="1410" y="120" class="b" style="animation-delay: 3.76s;" /> <rect x="1500" y="120" class="b" style="animation-delay: 4s;" /> <rect x="1530" y="120" class="b" style="animation-delay: 4.08s;" /> <rect x="1560" y="120" class="b" style="animation-delay: 4.16s;" /> <rect x="1590" y="120" class="b" style="animation-delay: 4.24s;" /> <rect x="1620" y="120" class="b" style="animation-delay: 4.32s;" /> <rect x="1650" y="120" class="b" style="animation-delay: 4.4s;" /> <rect x="1680" y="120" class="b" style="animation-delay: 4.48s;" /> <rect x="1710" y="120" class="b" style="animation-delay: 4.56s;" /> <rect x="1740" y="120" class="b" style="animation-delay: 4.64s;" /> <rect x="1770" y="120" class="b" style="animation-delay: 4.72s;" /> <rect x="0" y="150" class="b" style="animation-delay: 0s;" /> <rect x="30" y="150" class="b" style="animation-delay: 0.1s;" /> <rect x="330" y="150" class="b" style="animation-delay: 1.1s;" /> <rect x="360" y="150" class="b" style="animation-delay: 1.2s;" /> <rect x="540" y="150" class="b" style="animation-delay: 1.8s;" /> <rect x="570" y="150" class="b" style="animation-delay: 1.9s;" /> <rect x="630" y="150" class="b" style="animation-delay: 2.1s;" /> <rect x="660" y="150" class="b" style="animation-delay: 2.2s;" /> <rect x="690" y="150" class="b" style="animation-delay: 2.3s;" /> <rect x="720" y="150" class="b" style="animation-delay: 2.4s;" /> <rect x="930" y="150" class="b" style="animation-delay: 3.1s;" /> <rect x="960" y="150" class="b" style="animation-delay: 3.2s;" /> <rect x="1080" y="150" class="b" style="animation-delay: 3.6s;" /> <rect x="1110" y="150" class="b" style="animation-delay: 3.7s;" /> <rect x="1200" y="150" class="b" style="animation-delay: 4s;" /> <rect x="1230" y="150" class="b" style="animation-delay: 4.1s;" /> <rect x="1290" y="150" class="b" style="animation-delay: 4.3s;" /> <rect x="1320" y="150" class="b" style="animation-delay: 4.4s;" /> <rect x="1350" y="150" class="b" style="animation-delay: 4.5s;" /> <rect x="1380" y="150" class="b" style="animation-delay: 4.6s;" /> <rect x="1410" y="150" class="b" style="animation-delay: 4.7s;" /> <rect x="1440" y="150" class="b" style="animation-delay: 4.8s;" /> <rect x="1470" y="150" class="b" style="animation-delay: 4.9s;" /> <rect x="1500" y="150" class="b" style="animation-delay: 5s;" /> <rect x="1770" y="150" class="b" style="animation-delay: 5.9s;" /> <rect x="0" y="180" class="b" style="animation-delay: 0s;" /> <rect x="30" y="180" class="b" style="animation-delay: 0.12s;" /> <rect x="60" y="180" class="b" style="animation-delay: 0.24s;" /> <rect x="300" y="180" class="b" style="animation-delay: 1.2s;" /> <rect x="330" y="180" class="b" style="animation-delay: 1.32s;" /> <rect x="360" y="180" class="b" style="animation-delay: 1.44s;" /> <rect x="390" y="180" class="b" style="animation-delay: 1.56s;" /> <rect x="510" y="180" class="b" style="animation-delay: 2.04s;" /> <rect x="540" y="180" class="b" style="animation-delay: 2.16s;" /> <rect x="570" y="180" class="b" style="animation-delay: 2.28s;" /> <rect x="600" y="180" class="b" style="animation-delay: 2.4s;" /> <rect x="630" y="180" class="b" style="animation-delay: 2.52s;" /> <rect x="720" y="180" class="b" style="animation-delay: 2.88s;" /> <rect x="750" y="180" class="b" style="animation-delay: 3s;" /> <rect x="900" y="180" class="b" style="animation-delay: 3.6s;" /> <rect x="930" y="180" class="b" style="animation-delay: 3.72s;" /> <rect x="960" y="180" class="b" style="animation-delay: 3.84s;" /> <rect x="990" y="180" class="b" style="animation-delay: 3.96s;" /> <rect x="1050" y="180" class="b" style="animation-delay: 4.2s;" /> <rect x="1080" y="180" class="b" style="animation-delay: 4.32s;" /> <rect x="1110" y="180" class="b" style="animation-delay: 4.44s;" /> <rect x="1140" y="180" class="b" style="animation-delay: 4.56s;" /> <rect x="1170" y="180" class="b" style="animation-delay: 4.68s;" /> <rect x="1200" y="180" class="b" style="animation-delay: 4.8s;" /> <rect x="1230" y="180" class="b" style="animation-delay: 4.92s;" /> <rect x="1260" y="180" class="b" style="animation-delay: 5.04s;" /> <rect x="1290" y="180" class="b" style="animation-delay: 5.16s;" /> <rect x="1500" y="180" class="b" style="animation-delay: 6s;" /> <rect x="1530" y="180" class="b" style="animation-delay: 6.12s;" /> <rect x="1740" y="180" class="b" style="animation-delay: 6.96s;" /> <rect x="1770" y="180" class="b" style="animation-delay: 7.08s;" /> <rect x="0" y="210" class="b" style="animation-delay: 0s;" /> <rect x="60" y="210" class="b" style="animation-delay: 0.28s;" /> <rect x="90" y="210" class="b" style="animation-delay: 0.42s;" /> <rect x="270" y="210" class="b" style="animation-delay: 1.26s;" /> <rect x="300" y="210" class="b" style="animation-delay: 1.4s;" /> <rect x="390" y="210" class="b" style="animation-delay: 1.82s;" /> <rect x="420" y="210" class="b" style="animation-delay: 1.96s;" /> <rect x="480" y="210" class="b" style="animation-delay: 2.24s;" /> <rect x="510" y="210" class="b" style="animation-delay: 2.38s;" /> <rect x="630" y="210" class="b" style="animation-delay: 2.94s;" /> <rect x="660" y="210" class="b" style="animation-delay: 3.08s;" /> <rect x="690" y="210" class="b" style="animation-delay: 3.22s;" /> <rect x="720" y="210" class="b" style="animation-delay: 3.36s;" /> <rect x="750" y="210" class="b" style="animation-delay: 3.5s;" /> <rect x="780" y="210" class="b" style="animation-delay: 3.64s;" /> <rect x="870" y="210" class="b" style="animation-delay: 4.06s;" /> <rect x="900" y="210" class="b" style="animation-delay: 4.2s;" /> <rect x="990" y="210" class="b" style="animation-delay: 4.62s;" /> <rect x="1020" y="210" class="b" style="animation-delay: 4.76s;" /> <rect x="1050" y="210" class="b" style="animation-delay: 4.9s;" /> <rect x="1290" y="210" class="b" style="animation-delay: 6.02s;" /> <rect x="1320" y="210" class="b" style="animation-delay: 6.16s;" /> <rect x="1470" y="210" class="b" style="animation-delay: 6.86s;" /> <rect x="1500" y="210" class="b" style="animation-delay: 7s;" /> <rect x="1530" y="210" class="b" style="animation-delay: 7.14s;" /> <rect x="1560" y="210" class="b" style="animation-delay: 7.28s;" /> <rect x="1710" y="210" class="b" style="animation-delay: 7.98s;" /> <rect x="1740" y="210" class="b" style="animation-delay: 8.12s;" /> <rect x="1770" y="210" class="b" style="animation-delay: 8.26s;" /> <rect x="0" y="240" class="b" style="animation-delay: 0s;" /> <rect x="30" y="240" class="b" style="animation-delay: 0.16s;" /> <rect x="60" y="240" class="b" style="animation-delay: 0.32s;" /> <rect x="90" y="240" class="b" style="animation-delay: 0.48s;" /> <rect x="120" y="240" class="b" style="animation-delay: 0.64s;" /> <rect x="240" y="240" class="b" style="animation-delay: 1.28s;" /> <rect x="270" y="240" class="b" style="animation-delay: 1.44s;" /> <rect x="300" y="240" class="b" style="animation-delay: 1.6s;" /> <rect x="330" y="240" class="b" style="animation-delay: 1.76s;" /> <rect x="360" y="240" class="b" style="animation-delay: 1.92s;" /> <rect x="390" y="240" class="b" style="animation-delay: 2.08s;" /> <rect x="420" y="240" class="b" style="animation-delay: 2.24s;" /> <rect x="450" y="240" class="b" style="animation-delay: 2.4s;" /> <rect x="480" y="240" class="b" style="animation-delay: 2.56s;" /> <rect x="510" y="240" class="b" style="animation-delay: 2.72s;" /> <rect x="540" y="240" class="b" style="animation-delay: 2.88s;" /> <rect x="600" y="240" class="b" style="animation-delay: 3.2s;" /> <rect x="630" y="240" class="b" style="animation-delay: 3.36s;" /> <rect x="780" y="240" class="b" style="animation-delay: 4.16s;" /> <rect x="810" y="240" class="b" style="animation-delay: 4.32s;" /> <rect x="840" y="240" class="b" style="animation-delay: 4.48s;" /> <rect x="870" y="240" class="b" style="animation-delay: 4.64s;" /> <rect x="900" y="240" class="b" style="animation-delay: 4.8s;" /> <rect x="930" y="240" class="b" style="animation-delay: 4.96s;" /> <rect x="960" y="240" class="b" style="animation-delay: 5.12s;" /> <rect x="990" y="240" class="b" style="animation-delay: 5.28s;" /> <rect x="1050" y="240" class="b" style="animation-delay: 5.6s;" /> <rect x="1080" y="240" class="b" style="animation-delay: 5.76s;" /> <rect x="1260" y="240" class="b" style="animation-delay: 6.72s;" /> <rect x="1290" y="240" class="b" style="animation-delay: 6.88s;" /> <rect x="1320" y="240" class="b" style="animation-delay: 7.04s;" /> <rect x="1350" y="240" class="b" style="animation-delay: 7.2s;" /> <rect x="1440" y="240" class="b" style="animation-delay: 7.68s;" /> <rect x="1470" y="240" class="b" style="animation-delay: 7.84s;" /> <rect x="1560" y="240" class="b" style="animation-delay: 8.32s;" /> <rect x="1590" y="240" class="b" style="animation-delay: 8.48s;" /> <rect x="1680" y="240" class="b" style="animation-delay: 8.96s;" /> <rect x="1710" y="240" class="b" style="animation-delay: 9.12s;" /> <rect x="1770" y="240" class="b" style="animation-delay: 9.44s;" /> <rect x="0" y="270" class="b" style="animation-delay: 0s;" /> <rect x="120" y="270" class="b" style="animation-delay: 0.72s;" /> <rect x="150" y="270" class="b" style="animation-delay: 0.9s;" /> <rect x="210" y="270" class="b" style="animation-delay: 1.26s;" /> <rect x="240" y="270" class="b" style="animation-delay: 1.44s;" /> <rect x="540" y="270" class="b" style="animation-delay: 3.24s;" /> <rect x="570" y="270" class="b" style="animation-delay: 3.42s;" /> <rect x="600" y="270" class="b" style="animation-delay: 3.6s;" /> <rect x="630" y="270" class="b" style="animation-delay: 3.78s;" /> <rect x="660" y="270" class="b" style="animation-delay: 3.96s;" /> <rect x="750" y="270" class="b" style="animation-delay: 4.5s;" /> <rect x="780" y="270" class="b" style="animation-delay: 4.68s;" /> <rect x="990" y="270" class="b" style="animation-delay: 5.94s;" /> <rect x="1020" y="270" class="b" style="animation-delay: 6.12s;" /> <rect x="1050" y="270" class="b" style="animation-delay: 6.3s;" /> <rect x="1080" y="270" class="b" style="animation-delay: 6.48s;" /> <rect x="1110" y="270" class="b" style="animation-delay: 6.66s;" /> <rect x="1230" y="270" class="b" style="animation-delay: 7.38s;" /> <rect x="1260" y="270" class="b" style="animation-delay: 7.56s;" /> <rect x="1350" y="270" class="b" style="animation-delay: 8.1s;" /> <rect x="1380" y="270" class="b" style="animation-delay: 8.28s;" /> <rect x="1410" y="270" class="b" style="animation-delay: 8.46s;" /> <rect x="1440" y="270" class="b" style="animation-delay: 8.64s;" /> <rect x="1470" y="270" class="b" style="animation-delay: 8.82s;" /> <rect x="1500" y="270" class="b" style="animation-delay: 9s;" /> <rect x="1530" y="270" class="b" style="animation-delay: 9.18s;" /> <rect x="1560" y="270" class="b" style="animation-delay: 9.36s;" /> <rect x="1590" y="270" class="b" style="animation-delay: 9.54s;" /> <rect x="1620" y="270" class="b" style="animation-delay: 9.72s;" /> <rect x="1650" y="270" class="b" style="animation-delay: 9.9s;" /> <rect x="1680" y="270" class="b" style="animation-delay: 10.08s;" /> <rect x="1710" y="270" class="b" style="animation-delay: 10.26s;" /> <rect x="1740" y="270" class="b" style="animation-delay: 10.44s;" /> <rect x="1770" y="270" class="b" style="animation-delay: 10.62s;" /> <rect x="0" y="300" class="b" style="animation-delay: 0s;" /> <rect x="30" y="300" class="b" style="animation-delay: 0.2s;" /> <rect x="90" y="300" class="b" style="animation-delay: 0.6s;" /> <rect x="120" y="300" class="b" style="animation-delay: 0.8s;" /> <rect x="150" y="300" class="b" style="animation-delay: 1s;" /> <rect x="180" y="300" class="b" style="animation-delay: 1.2s;" /> <rect x="210" y="300" class="b" style="animation-delay: 1.4s;" /> <rect x="240" y="300" class="b" style="animation-delay: 1.6s;" /> <rect x="270" y="300" class="b" style="animation-delay: 1.8s;" /> <rect x="510" y="300" class="b" style="animation-delay: 3.4s;" /> <rect x="540" y="300" class="b" style="animation-delay: 3.6s;" /> <rect x="660" y="300" class="b" style="animation-delay: 4.4s;" /> <rect x="690" y="300" class="b" style="animation-delay: 4.6s;" /> <rect x="720" y="300" class="b" style="animation-delay: 4.8s;" /> <rect x="750" y="300" class="b" style="animation-delay: 5s;" /> <rect x="780" y="300" class="b" style="animation-delay: 5.2s;" /> <rect x="810" y="300" class="b" style="animation-delay: 5.4s;" /> <rect x="960" y="300" class="b" style="animation-delay: 6.4s;" /> <rect x="990" y="300" class="b" style="animation-delay: 6.6s;" /> <rect x="1110" y="300" class="b" style="animation-delay: 7.4s;" /> <rect x="1140" y="300" class="b" style="animation-delay: 7.6s;" /> <rect x="1200" y="300" class="b" style="animation-delay: 8s;" /> <rect x="1230" y="300" class="b" style="animation-delay: 8.2s;" /> <rect x="1260" y="300" class="b" style="animation-delay: 8.4s;" /> <rect x="1290" y="300" class="b" style="animation-delay: 8.6s;" /> <rect x="1320" y="300" class="b" style="animation-delay: 8.8s;" /> <rect x="1350" y="300" class="b" style="animation-delay: 9s;" /> <rect x="1770" y="300" class="b" style="animation-delay: 11.8s;" /> <rect x="0" y="330" class="b" style="animation-delay: 0s;" /> <rect x="30" y="330" class="b" style="animation-delay: 0.22s;" /> <rect x="60" y="330" class="b" style="animation-delay: 0.44s;" /> <rect x="90" y="330" class="b" style="animation-delay: 0.66s;" /> <rect x="270" y="330" class="b" style="animation-delay: 1.98s;" /> <rect x="300" y="330" class="b" style="animation-delay: 2.2s;" /> <rect x="480" y="330" class="b" style="animation-delay: 3.52s;" /> <rect x="510" y="330" class="b" style="animation-delay: 3.74s;" /> <rect x="540" y="330" class="b" style="animation-delay: 3.96s;" /> <rect x="570" y="330" class="b" style="animation-delay: 4.18s;" /> <rect x="630" y="330" class="b" style="animation-delay: 4.62s;" /> <rect x="660" y="330" class="b" style="animation-delay: 4.84s;" /> <rect x="810" y="330" class="b" style="animation-delay: 5.94s;" /> <rect x="840" y="330" class="b" style="animation-delay: 6.16s;" /> <rect x="930" y="330" class="b" style="animation-delay: 6.82s;" /> <rect x="960" y="330" class="b" style="animation-delay: 7.04s;" /> <rect x="990" y="330" class="b" style="animation-delay: 7.26s;" /> <rect x="1020" y="330" class="b" style="animation-delay: 7.48s;" /> <rect x="1080" y="330" class="b" style="animation-delay: 7.92s;" /> <rect x="1110" y="330" class="b" style="animation-delay: 8.14s;" /> <rect x="1140" y="330" class="b" style="animation-delay: 8.36s;" /> <rect x="1170" y="330" class="b" style="animation-delay: 8.58s;" /> <rect x="1200" y="330" class="b" style="animation-delay: 8.8s;" /> <rect x="1350" y="330" class="b" style="animation-delay: 9.9s;" /> <rect x="1380" y="330" class="b" style="animation-delay: 10.12s;" /> <rect x="1740" y="330" class="b" style="animation-delay: 12.76s;" /> <rect x="1770" y="330" class="b" style="animation-delay: 12.98s;" /> <rect x="0" y="360" class="b" style="animation-delay: 0s;" /> <rect x="90" y="360" class="b" style="animation-delay: 0.72s;" /> <rect x="120" y="360" class="b" style="animation-delay: 0.96s;" /> <rect x="240" y="360" class="b" style="animation-delay: 1.92s;" /> <rect x="270" y="360" class="b" style="animation-delay: 2.16s;" /> <rect x="300" y="360" class="b" style="animation-delay: 2.4s;" /> <rect x="330" y="360" class="b" style="animation-delay: 2.64s;" /> <rect x="450" y="360" class="b" style="animation-delay: 3.6s;" /> <rect x="480" y="360" class="b" style="animation-delay: 3.84s;" /> <rect x="570" y="360" class="b" style="animation-delay: 4.56s;" /> <rect x="600" y="360" class="b" style="animation-delay: 4.8s;" /> <rect x="630" y="360" class="b" style="animation-delay: 5.04s;" /> <rect x="660" y="360" class="b" style="animation-delay: 5.28s;" /> <rect x="690" y="360" class="b" style="animation-delay: 5.52s;" /> <rect x="780" y="360" class="b" style="animation-delay: 6.24s;" /> <rect x="810" y="360" class="b" style="animation-delay: 6.48s;" /> <rect x="840" y="360" class="b" style="animation-delay: 6.72s;" /> <rect x="870" y="360" class="b" style="animation-delay: 6.96s;" /> <rect x="900" y="360" class="b" style="animation-delay: 7.2s;" /> <rect x="930" y="360" class="b" style="animation-delay: 7.44s;" /> <rect x="1020" y="360" class="b" style="animation-delay: 8.16s;" /> <rect x="1050" y="360" class="b" style="animation-delay: 8.4s;" /> <rect x="1080" y="360" class="b" style="animation-delay: 8.64s;" /> <rect x="1200" y="360" class="b" style="animation-delay: 9.6s;" /> <rect x="1230" y="360" class="b" style="animation-delay: 9.84s;" /> <rect x="1320" y="360" class="b" style="animation-delay: 10.56s;" /> <rect x="1350" y="360" class="b" style="animation-delay: 10.8s;" /> <rect x="1380" y="360" class="b" style="animation-delay: 11.04s;" /> <rect x="1410" y="360" class="b" style="animation-delay: 11.28s;" /> <rect x="1710" y="360" class="b" style="animation-delay: 13.68s;" /> <rect x="1740" y="360" class="b" style="animation-delay: 13.92s;" /> <rect x="1770" y="360" class="b" style="animation-delay: 14.16s;" /> <rect x="0" y="390" class="b" style="animation-delay: 0s;" /> <rect x="30" y="390" class="b" style="animation-delay: 0.26s;" /> <rect x="60" y="390" class="b" style="animation-delay: 0.52s;" /> <rect x="90" y="390" class="b" style="animation-delay: 0.78s;" /> <rect x="120" y="390" class="b" style="animation-delay: 1.04s;" /> <rect x="150" y="390" class="b" style="animation-delay: 1.3s;" /> <rect x="210" y="390" class="b" style="animation-delay: 1.82s;" /> <rect x="240" y="390" class="b" style="animation-delay: 2.08s;" /> <rect x="330" y="390" class="b" style="animation-delay: 2.86s;" /> <rect x="360" y="390" class="b" style="animation-delay: 3.12s;" /> <rect x="420" y="390" class="b" style="animation-delay: 3.64s;" /> <rect x="450" y="390" class="b" style="animation-delay: 3.9s;" /> <rect x="480" y="390" class="b" style="animation-delay: 4.16s;" /> <rect x="510" y="390" class="b" style="animation-delay: 4.42s;" /> <rect x="540" y="390" class="b" style="animation-delay: 4.68s;" /> <rect x="570" y="390" class="b" style="animation-delay: 4.94s;" /> <rect x="690" y="390" class="b" style="animation-delay: 5.98s;" /> <rect x="720" y="390" class="b" style="animation-delay: 6.24s;" /> <rect x="750" y="390" class="b" style="animation-delay: 6.5s;" /> <rect x="780" y="390" class="b" style="animation-delay: 6.76s;" /> <rect x="930" y="390" class="b" style="animation-delay: 8.06s;" /> <rect x="960" y="390" class="b" style="animation-delay: 8.32s;" /> <rect x="990" y="390" class="b" style="animation-delay: 8.58s;" /> <rect x="1020" y="390" class="b" style="animation-delay: 8.84s;" /> <rect x="1080" y="390" class="b" style="animation-delay: 9.36s;" /> <rect x="1110" y="390" class="b" style="animation-delay: 9.62s;" /> <rect x="1170" y="390" class="b" style="animation-delay: 10.14s;" /> <rect x="1200" y="390" class="b" style="animation-delay: 10.4s;" /> <rect x="1230" y="390" class="b" style="animation-delay: 10.66s;" /> <rect x="1260" y="390" class="b" style="animation-delay: 10.92s;" /> <rect x="1290" y="390" class="b" style="animation-delay: 11.18s;" /> <rect x="1320" y="390" class="b" style="animation-delay: 11.44s;" /> <rect x="1410" y="390" class="b" style="animation-delay: 12.22s;" /> <rect x="1440" y="390" class="b" style="animation-delay: 12.48s;" /> <rect x="1680" y="390" class="b" style="animation-delay: 14.56s;" /> <rect x="1710" y="390" class="b" style="animation-delay: 14.82s;" /> <rect x="1770" y="390" class="b" style="animation-delay: 15.34s;" /> <rect x="0" y="420" class="b" style="animation-delay: 0s;" /> <rect x="150" y="420" class="b" style="animation-delay: 1.4s;" /> <rect x="180" y="420" class="b" style="animation-delay: 1.68s;" /> <rect x="210" y="420" class="b" style="animation-delay: 1.96s;" /> <rect x="240" y="420" class="b" style="animation-delay: 2.24s;" /> <rect x="270" y="420" class="b" style="animation-delay: 2.52s;" /> <rect x="300" y="420" class="b" style="animation-delay: 2.8s;" /> <rect x="330" y="420" class="b" style="animation-delay: 3.08s;" /> <rect x="360" y="420" class="b" style="animation-delay: 3.36s;" /> <rect x="390" y="420" class="b" style="animation-delay: 3.64s;" /> <rect x="420" y="420" class="b" style="animation-delay: 3.92s;" /> <rect x="570" y="420" class="b" style="animation-delay: 5.32s;" /> <rect x="600" y="420" class="b" style="animation-delay: 5.6s;" /> <rect x="660" y="420" class="b" style="animation-delay: 6.16s;" /> <rect x="690" y="420" class="b" style="animation-delay: 6.44s;" /> <rect x="780" y="420" class="b" style="animation-delay: 7.28s;" /> <rect x="810" y="420" class="b" style="animation-delay: 7.56s;" /> <rect x="900" y="420" class="b" style="animation-delay: 8.4s;" /> <rect x="930" y="420" class="b" style="animation-delay: 8.68s;" /> <rect x="1020" y="420" class="b" style="animation-delay: 9.52s;" /> <rect x="1050" y="420" class="b" style="animation-delay: 9.8s;" /> <rect x="1080" y="420" class="b" style="animation-delay: 10.08s;" /> <rect x="1110" y="420" class="b" style="animation-delay: 10.36s;" /> <rect x="1140" y="420" class="b" style="animation-delay: 10.64s;" /> <rect x="1170" y="420" class="b" style="animation-delay: 10.92s;" /> <rect x="1320" y="420" class="b" style="animation-delay: 12.32s;" /> <rect x="1350" y="420" class="b" style="animation-delay: 12.6s;" /> <rect x="1380" y="420" class="b" style="animation-delay: 12.88s;" /> <rect x="1410" y="420" class="b" style="animation-delay: 13.16s;" /> <rect x="1440" y="420" class="b" style="animation-delay: 13.44s;" /> <rect x="1470" y="420" class="b" style="animation-delay: 13.72s;" /> <rect x="1650" y="420" class="b" style="animation-delay: 15.4s;" /> <rect x="1680" y="420" class="b" style="animation-delay: 15.68s;" /> <rect x="1710" y="420" class="b" style="animation-delay: 15.96s;" /> <rect x="1740" y="420" class="b" style="animation-delay: 16.24s;" /> <rect x="1770" y="420" class="b" style="animation-delay: 16.52s;" /> <rect x="0" y="450" class="b" style="animation-delay: 0s;" /> <rect x="30" y="450" class="b" style="animation-delay: 0.3s;" /> <rect x="120" y="450" class="b" style="animation-delay: 1.2s;" /> <rect x="150" y="450" class="b" style="animation-delay: 1.5s;" /> <rect x="420" y="450" class="b" style="animation-delay: 4.2s;" /> <rect x="450" y="450" class="b" style="animation-delay: 4.5s;" /> <rect x="540" y="450" class="b" style="animation-delay: 5.4s;" /> <rect x="570" y="450" class="b" style="animation-delay: 5.7s;" /> <rect x="600" y="450" class="b" style="animation-delay: 6s;" /> <rect x="630" y="450" class="b" style="animation-delay: 6.3s;" /> <rect x="660" y="450" class="b" style="animation-delay: 6.6s;" /> <rect x="690" y="450" class="b" style="animation-delay: 6.9s;" /> <rect x="720" y="450" class="b" style="animation-delay: 7.2s;" /> <rect x="750" y="450" class="b" style="animation-delay: 7.5s;" /> <rect x="780" y="450" class="b" style="animation-delay: 7.8s;" /> <rect x="810" y="450" class="b" style="animation-delay: 8.1s;" /> <rect x="840" y="450" class="b" style="animation-delay: 8.4s;" /> <rect x="870" y="450" class="b" style="animation-delay: 8.7s;" /> <rect x="900" y="450" class="b" style="animation-delay: 9s;" /> <rect x="930" y="450" class="b" style="animation-delay: 9.3s;" /> <rect x="960" y="450" class="b" style="animation-delay: 9.6s;" /> <rect x="990" y="450" class="b" style="animation-delay: 9.9s;" /> <rect x="1020" y="450" class="b" style="animation-delay: 10.2s;" /> <rect x="1170" y="450" class="b" style="animation-delay: 11.7s;" /> <rect x="1200" y="450" class="b" style="animation-delay: 12s;" /> <rect x="1290" y="450" class="b" style="animation-delay: 12.9s;" /> <rect x="1320" y="450" class="b" style="animation-delay: 13.2s;" /> <rect x="1470" y="450" class="b" style="animation-delay: 14.7s;" /> <rect x="1500" y="450" class="b" style="animation-delay: 15s;" /> <rect x="1620" y="450" class="b" style="animation-delay: 16.2s;" /> <rect x="1650" y="450" class="b" style="animation-delay: 16.5s;" /> <rect x="1770" y="450" class="b" style="animation-delay: 17.7s;" /> <rect x="0" y="480" class="b" style="animation-delay: 0s;" /> <rect x="30" y="480" class="b" style="animation-delay: 0.32s;" /> <rect x="60" y="480" class="b" style="animation-delay: 0.64s;" /> <rect x="90" y="480" class="b" style="animation-delay: 0.96s;" /> <rect x="120" y="480" class="b" style="animation-delay: 1.28s;" /> <rect x="150" y="480" class="b" style="animation-delay: 1.6s;" /> <rect x="180" y="480" class="b" style="animation-delay: 1.92s;" /> <rect x="390" y="480" class="b" style="animation-delay: 4.16s;" /> <rect x="420" y="480" class="b" style="animation-delay: 4.48s;" /> <rect x="450" y="480" class="b" style="animation-delay: 4.8s;" /> <rect x="480" y="480" class="b" style="animation-delay: 5.12s;" /> <rect x="510" y="480" class="b" style="animation-delay: 5.44s;" /> <rect x="540" y="480" class="b" style="animation-delay: 5.76s;" /> <rect x="1020" y="480" class="b" style="animation-delay: 10.88s;" /> <rect x="1050" y="480" class="b" style="animation-delay: 11.2s;" /> <rect x="1140" y="480" class="b" style="animation-delay: 12.16s;" /> <rect x="1170" y="480" class="b" style="animation-delay: 12.48s;" /> <rect x="1200" y="480" class="b" style="animation-delay: 12.8s;" /> <rect x="1230" y="480" class="b" style="animation-delay: 13.12s;" /> <rect x="1260" y="480" class="b" style="animation-delay: 13.44s;" /> <rect x="1290" y="480" class="b" style="animation-delay: 13.76s;" /> <rect x="1320" y="480" class="b" style="animation-delay: 14.08s;" /> <rect x="1350" y="480" class="b" style="animation-delay: 14.4s;" /> <rect x="1440" y="480" class="b" style="animation-delay: 15.36s;" /> <rect x="1470" y="480" class="b" style="animation-delay: 15.68s;" /> <rect x="1500" y="480" class="b" style="animation-delay: 16s;" /> <rect x="1530" y="480" class="b" style="animation-delay: 16.32s;" /> <rect x="1590" y="480" class="b" style="animation-delay: 16.96s;" /> <rect x="1620" y="480" class="b" style="animation-delay: 17.28s;" /> <rect x="1650" y="480" class="b" style="animation-delay: 17.6s;" /> <rect x="1680" y="480" class="b" style="animation-delay: 17.92s;" /> <rect x="1740" y="480" class="b" style="animation-delay: 18.56s;" /> <rect x="1770" y="480" class="b" style="animation-delay: 18.88s;" /> <rect x="0" y="510" class="b" style="animation-delay: 0s;" /> <rect x="180" y="510" class="b" style="animation-delay: 2.04s;" /> <rect x="210" y="510" class="b" style="animation-delay: 2.38s;" /> <rect x="360" y="510" class="b" style="animation-delay: 4.08s;" /> <rect x="390" y="510" class="b" style="animation-delay: 4.42s;" /> <rect x="540" y="510" class="b" style="animation-delay: 6.12s;" /> <rect x="570" y="510" class="b" style="animation-delay: 6.46s;" /> <rect x="990" y="510" class="b" style="animation-delay: 11.22s;" /> <rect x="1020" y="510" class="b" style="animation-delay: 11.56s;" /> <rect x="1050" y="510" class="b" style="animation-delay: 11.9s;" /> <rect x="1080" y="510" class="b" style="animation-delay: 12.24s;" /> <rect x="1110" y="510" class="b" style="animation-delay: 12.58s;" /> <rect x="1140" y="510" class="b" style="animation-delay: 12.92s;" /> <rect x="1350" y="510" class="b" style="animation-delay: 15.3s;" /> <rect x="1380" y="510" class="b" style="animation-delay: 15.64s;" /> <rect x="1410" y="510" class="b" style="animation-delay: 15.98s;" /> <rect x="1440" y="510" class="b" style="animation-delay: 16.32s;" /> <rect x="1530" y="510" class="b" style="animation-delay: 17.34s;" /> <rect x="1560" y="510" class="b" style="animation-delay: 17.68s;" /> <rect x="1590" y="510" class="b" style="animation-delay: 18.02s;" /> <rect x="1680" y="510" class="b" style="animation-delay: 19.04s;" /> <rect x="1710" y="510" class="b" style="animation-delay: 19.38s;" /> <rect x="1740" y="510" class="b" style="animation-delay: 19.72s;" /> <rect x="1770" y="510" class="b" style="animation-delay: 20.06s;" /> <rect x="0" y="540" class="b" style="animation-delay: 0s;" /> <rect x="30" y="540" class="b" style="animation-delay: 0.36s;" /> <rect x="150" y="540" class="b" style="animation-delay: 1.8s;" /> <rect x="180" y="540" class="b" style="animation-delay: 2.16s;" /> <rect x="210" y="540" class="b" style="animation-delay: 2.52s;" /> <rect x="240" y="540" class="b" style="animation-delay: 2.88s;" /> <rect x="330" y="540" class="b" style="animation-delay: 3.96s;" /> <rect x="360" y="540" class="b" style="animation-delay: 4.32s;" /> <rect x="390" y="540" class="b" style="animation-delay: 4.68s;" /> <rect x="420" y="540" class="b" style="animation-delay: 5.04s;" /> <rect x="510" y="540" class="b" style="animation-delay: 6.12s;" /> <rect x="540" y="540" class="b" style="animation-delay: 6.48s;" /> <rect x="570" y="540" class="b" style="animation-delay: 6.84s;" /> <rect x="600" y="540" class="b" style="animation-delay: 7.2s;" /> <rect x="960" y="540" class="b" style="animation-delay: 11.52s;" /> <rect x="990" y="540" class="b" style="animation-delay: 11.88s;" /> <rect x="1140" y="540" class="b" style="animation-delay: 13.68s;" /> <rect x="1170" y="540" class="b" style="animation-delay: 14.04s;" /> <rect x="1320" y="540" class="b" style="animation-delay: 15.84s;" /> <rect x="1350" y="540" class="b" style="animation-delay: 16.2s;" /> <rect x="1440" y="540" class="b" style="animation-delay: 17.28s;" /> <rect x="1470" y="540" class="b" style="animation-delay: 17.64s;" /> <rect x="1500" y="540" class="b" style="animation-delay: 18s;" /> <rect x="1530" y="540" class="b" style="animation-delay: 18.36s;" /> <rect x="1590" y="540" class="b" style="animation-delay: 19.08s;" /> <rect x="1620" y="540" class="b" style="animation-delay: 19.44s;" /> <rect x="1650" y="540" class="b" style="animation-delay: 19.8s;" /> <rect x="1680" y="540" class="b" style="animation-delay: 20.16s;" /> <rect x="1770" y="540" class="b" style="animation-delay: 21.24s;" /> <rect x="0" y="570" class="b" style="animation-delay: 0s;" /> <rect x="30" y="570" class="b" style="animation-delay: 0.38s;" /> <rect x="60" y="570" class="b" style="animation-delay: 0.76s;" /> <rect x="120" y="570" class="b" style="animation-delay: 1.52s;" /> <rect x="150" y="570" class="b" style="animation-delay: 1.9s;" /> <rect x="240" y="570" class="b" style="animation-delay: 3.04s;" /> <rect x="270" y="570" class="b" style="animation-delay: 3.42s;" /> <rect x="300" y="570" class="b" style="animation-delay: 3.8s;" /> <rect x="330" y="570" class="b" style="animation-delay: 4.18s;" /> <rect x="420" y="570" class="b" style="animation-delay: 5.32s;" /> <rect x="450" y="570" class="b" style="animation-delay: 5.7s;" /> <rect x="480" y="570" class="b" style="animation-delay: 6.08s;" /> <rect x="510" y="570" class="b" style="animation-delay: 6.46s;" /> <rect x="600" y="570" class="b" style="animation-delay: 7.6s;" /> <rect x="630" y="570" class="b" style="animation-delay: 7.98s;" /> <rect x="930" y="570" class="b" style="animation-delay: 11.78s;" /> <rect x="960" y="570" class="b" style="animation-delay: 12.16s;" /> <rect x="990" y="570" class="b" style="animation-delay: 12.54s;" /> <rect x="1020" y="570" class="b" style="animation-delay: 12.92s;" /> <rect x="1110" y="570" class="b" style="animation-delay: 14.06s;" /> <rect x="1140" y="570" class="b" style="animation-delay: 14.44s;" /> <rect x="1170" y="570" class="b" style="animation-delay: 14.82s;" /> <rect x="1200" y="570" class="b" style="animation-delay: 15.2s;" /> <rect x="1290" y="570" class="b" style="animation-delay: 16.34s;" /> <rect x="1320" y="570" class="b" style="animation-delay: 16.72s;" /> <rect x="1350" y="570" class="b" style="animation-delay: 17.1s;" /> <rect x="1380" y="570" class="b" style="animation-delay: 17.48s;" /> <rect x="1410" y="570" class="b" style="animation-delay: 17.86s;" /> <rect x="1440" y="570" class="b" style="animation-delay: 18.24s;" /> <rect x="1530" y="570" class="b" style="animation-delay: 19.38s;" /> <rect x="1560" y="570" class="b" style="animation-delay: 19.76s;" /> <rect x="1590" y="570" class="b" style="animation-delay: 20.14s;" /> <rect x="1680" y="570" class="b" style="animation-delay: 21.28s;" /> <rect x="1710" y="570" class="b" style="animation-delay: 21.66s;" /> <rect x="1740" y="570" class="b" style="animation-delay: 22.04s;" /> <rect x="1770" y="570" class="b" style="animation-delay: 22.42s;" /> <rect x="0" y="600" class="b" style="animation-delay: 0s;" /> <rect x="60" y="600" class="b" style="animation-delay: 0.8s;" /> <rect x="90" y="600" class="b" style="animation-delay: 1.2s;" /> <rect x="120" y="600" class="b" style="animation-delay: 1.6s;" /> <rect x="150" y="600" class="b" style="animation-delay: 2s;" /> <rect x="180" y="600" class="b" style="animation-delay: 2.4s;" /> <rect x="210" y="600" class="b" style="animation-delay: 2.8s;" /> <rect x="240" y="600" class="b" style="animation-delay: 3.2s;" /> <rect x="330" y="600" class="b" style="animation-delay: 4.4s;" /> <rect x="360" y="600" class="b" style="animation-delay: 4.8s;" /> <rect x="390" y="600" class="b" style="animation-delay: 5.2s;" /> <rect x="420" y="600" class="b" style="animation-delay: 5.6s;" /> <rect x="510" y="600" class="b" style="animation-delay: 6.8s;" /> <rect x="540" y="600" class="b" style="animation-delay: 7.2s;" /> <rect x="570" y="600" class="b" style="animation-delay: 7.6s;" /> <rect x="600" y="600" class="b" style="animation-delay: 8s;" /> <rect x="630" y="600" class="b" style="animation-delay: 8.4s;" /> <rect x="660" y="600" class="b" style="animation-delay: 8.8s;" /> <rect x="900" y="600" class="b" style="animation-delay: 12s;" /> <rect x="930" y="600" class="b" style="animation-delay: 12.4s;" /> <rect x="1020" y="600" class="b" style="animation-delay: 13.6s;" /> <rect x="1050" y="600" class="b" style="animation-delay: 14s;" /> <rect x="1080" y="600" class="b" style="animation-delay: 14.4s;" /> <rect x="1110" y="600" class="b" style="animation-delay: 14.8s;" /> <rect x="1200" y="600" class="b" style="animation-delay: 16s;" /> <rect x="1230" y="600" class="b" style="animation-delay: 16.4s;" /> <rect x="1260" y="600" class="b" style="animation-delay: 16.8s;" /> <rect x="1290" y="600" class="b" style="animation-delay: 17.2s;" /> <rect x="1440" y="600" class="b" style="animation-delay: 19.2s;" /> <rect x="1470" y="600" class="b" style="animation-delay: 19.6s;" /> <rect x="1500" y="600" class="b" style="animation-delay: 20s;" /> <rect x="1530" y="600" class="b" style="animation-delay: 20.4s;" /> <rect x="1590" y="600" class="b" style="animation-delay: 21.2s;" /> <rect x="1620" y="600" class="b" style="animation-delay: 21.6s;" /> <rect x="1650" y="600" class="b" style="animation-delay: 22s;" /> <rect x="1680" y="600" class="b" style="animation-delay: 22.4s;" /> <rect x="1770" y="600" class="b" style="animation-delay: 23.6s;" /> <text fill="black" xml:space="preserve" font-family="-apple-system, BlinkMacSystemFont, 'Segoe UI', Roboto, Helvetica, Arial, sans-serif" font-size="130" font-weight="bold" letter-spacing="0em" > <tspan x="320" y="330" stroke="#519d9e" fill="#151823"> Akshay Nair </tspan> </text> <style> @keyframes animation { 0% { opacity: 0.2; transform: scale(1); } 50% { opacity: 0.5; transform: scale(1.01); } 100% { opacity: 0.2; transform: scale(1); } } .b { fill: #519d9e; width: 25px; height: 25px; transform-origin: 50% 50%; opacity: 0.2; animation: animation 2s infinite ease-in-out; } </style> </svg> 
