 <svg viewBox="0 0 1500 600" width="1500" height="600" xmlns="http://www.w3.org/2000/svg"> <rect x="90" y="0" class="b" style="animation-delay: 0s;" /> <rect x="120" y="0" class="b" style="animation-delay: 0s;" /> <rect x="150" y="0" class="b" style="animation-delay: 0s;" /> <rect x="180" y="0" class="b" style="animation-delay: 0s;" /> <rect x="240" y="0" class="b" style="animation-delay: 0s;" /> <rect x="270" y="0" class="b" style="animation-delay: 0s;" /> <rect x="300" y="0" class="b" style="animation-delay: 0s;" /> <rect x="330" y="0" class="b" style="animation-delay: 0s;" /> <rect x="360" y="0" class="b" style="animation-delay: 0s;" /> <rect x="420" y="0" class="b" style="animation-delay: 0s;" /> <rect x="450" y="0" class="b" style="animation-delay: 0s;" /> <rect x="690" y="0" class="b" style="animation-delay: 0s;" /> <rect x="720" y="0" class="b" style="animation-delay: 0s;" /> <rect x="780" y="0" class="b" style="animation-delay: 0s;" /> <rect x="840" y="0" class="b" style="animation-delay: 0s;" /> <rect x="870" y="0" class="b" style="animation-delay: 0s;" /> <rect x="930" y="0" class="b" style="animation-delay: 0s;" /> <rect x="960" y="0" class="b" style="animation-delay: 0s;" /> <rect x="1020" y="0" class="b" style="animation-delay: 0s;" /> <rect x="1080" y="0" class="b" style="animation-delay: 0s;" /> <rect x="1350" y="0" class="b" style="animation-delay: 0s;" /> <rect x="1410" y="0" class="b" style="animation-delay: 0s;" /> <rect x="1470" y="0" class="b" style="animation-delay: 0s;" /> <rect x="1530" y="0" class="b" style="animation-delay: 0s;" /> <rect x="1560" y="0" class="b" style="animation-delay: 0s;" /> <rect x="1620" y="0" class="b" style="animation-delay: 0s;" /> <rect x="1650" y="0" class="b" style="animation-delay: 0s;" /> <rect x="1680" y="0" class="b" style="animation-delay: 0s;" /> <rect x="1710" y="0" class="b" style="animation-delay: 0s;" /> <rect x="1770" y="0" class="b" style="animation-delay: 0s;" /> <rect x="60" y="30" class="b" style="animation-delay: 0.04s;" /> <rect x="90" y="30" class="b" style="animation-delay: 0.06s;" /> <rect x="180" y="30" class="b" style="animation-delay: 0.12s;" /> <rect x="210" y="30" class="b" style="animation-delay: 0.14s;" /> <rect x="240" y="30" class="b" style="animation-delay: 0.16s;" /> <rect x="360" y="30" class="b" style="animation-delay: 0.24s;" /> <rect x="390" y="30" class="b" style="animation-delay: 0.26s;" /> <rect x="420" y="30" class="b" style="animation-delay: 0.28s;" /> <rect x="450" y="30" class="b" style="animation-delay: 0.3s;" /> <rect x="480" y="30" class="b" style="animation-delay: 0.32s;" /> <rect x="660" y="30" class="b" style="animation-delay: 0.44s;" /> <rect x="690" y="30" class="b" style="animation-delay: 0.46s;" /> <rect x="720" y="30" class="b" style="animation-delay: 0.48s;" /> <rect x="750" y="30" class="b" style="animation-delay: 0.5s;" /> <rect x="780" y="30" class="b" style="animation-delay: 0.52s;" /> <rect x="810" y="30" class="b" style="animation-delay: 0.54s;" /> <rect x="840" y="30" class="b" style="animation-delay: 0.56s;" /> <rect x="870" y="30" class="b" style="animation-delay: 0.58s;" /> <rect x="900" y="30" class="b" style="animation-delay: 0.6s;" /> <rect x="930" y="30" class="b" style="animation-delay: 0.62s;" /> <rect x="960" y="30" class="b" style="animation-delay: 0.64s;" /> <rect x="990" y="30" class="b" style="animation-delay: 0.66s;" /> <rect x="1020" y="30" class="b" style="animation-delay: 0.68s;" /> <rect x="1050" y="30" class="b" style="animation-delay: 0.7s;" /> <rect x="1080" y="30" class="b" style="animation-delay: 0.72s;" /> <rect x="1110" y="30" class="b" style="animation-delay: 0.74s;" /> <rect x="1320" y="30" class="b" style="animation-delay: 0.88s;" /> <rect x="1350" y="30" class="b" style="animation-delay: 0.9s;" /> <rect x="1380" y="30" class="b" style="animation-delay: 0.92s;" /> <rect x="1410" y="30" class="b" style="animation-delay: 0.94s;" /> <rect x="1440" y="30" class="b" style="animation-delay: 0.96s;" /> <rect x="1470" y="30" class="b" style="animation-delay: 0.98s;" /> <rect x="1500" y="30" class="b" style="animation-delay: 1s;" /> <rect x="1530" y="30" class="b" style="animation-delay: 1.02s;" /> <rect x="1560" y="30" class="b" style="animation-delay: 1.04s;" /> <rect x="1590" y="30" class="b" style="animation-delay: 1.06s;" /> <rect x="1620" y="30" class="b" style="animation-delay: 1.08s;" /> <rect x="1710" y="30" class="b" style="animation-delay: 1.14s;" /> <rect x="1740" y="30" class="b" style="animation-delay: 1.16s;" /> <rect x="1770" y="30" class="b" style="animation-delay: 1.18s;" /> <rect x="30" y="60" class="b" style="animation-delay: 0.04s;" /> <rect x="60" y="60" class="b" style="animation-delay: 0.08s;" /> <rect x="90" y="60" class="b" style="animation-delay: 0.12s;" /> <rect x="120" y="60" class="b" style="animation-delay: 0.16s;" /> <rect x="150" y="60" class="b" style="animation-delay: 0.2s;" /> <rect x="180" y="60" class="b" style="animation-delay: 0.24s;" /> <rect x="240" y="60" class="b" style="animation-delay: 0.32s;" /> <rect x="270" y="60" class="b" style="animation-delay: 0.36s;" /> <rect x="330" y="60" class="b" style="animation-delay: 0.44s;" /> <rect x="360" y="60" class="b" style="animation-delay: 0.48s;" /> <rect x="480" y="60" class="b" style="animation-delay: 0.64s;" /> <rect x="510" y="60" class="b" style="animation-delay: 0.68s;" /> <rect x="630" y="60" class="b" style="animation-delay: 0.84s;" /> <rect x="660" y="60" class="b" style="animation-delay: 0.88s;" /> <rect x="1110" y="60" class="b" style="animation-delay: 1.48s;" /> <rect x="1140" y="60" class="b" style="animation-delay: 1.52s;" /> <rect x="1290" y="60" class="b" style="animation-delay: 1.72s;" /> <rect x="1320" y="60" class="b" style="animation-delay: 1.76s;" /> <rect x="1620" y="60" class="b" style="animation-delay: 2.16s;" /> <rect x="1650" y="60" class="b" style="animation-delay: 2.2s;" /> <rect x="1680" y="60" class="b" style="animation-delay: 2.24s;" /> <rect x="1710" y="60" class="b" style="animation-delay: 2.28s;" /> <rect x="1770" y="60" class="b" style="animation-delay: 2.36s;" /> <rect x="0" y="90" class="b" style="animation-delay: 0s;" /> <rect x="30" y="90" class="b" style="animation-delay: 0.06s;" /> <rect x="180" y="90" class="b" style="animation-delay: 0.36s;" /> <rect x="210" y="90" class="b" style="animation-delay: 0.42s;" /> <rect x="240" y="90" class="b" style="animation-delay: 0.48s;" /> <rect x="270" y="90" class="b" style="animation-delay: 0.54s;" /> <rect x="300" y="90" class="b" style="animation-delay: 0.6s;" /> <rect x="330" y="90" class="b" style="animation-delay: 0.66s;" /> <rect x="360" y="90" class="b" style="animation-delay: 0.72s;" /> <rect x="390" y="90" class="b" style="animation-delay: 0.78s;" /> <rect x="450" y="90" class="b" style="animation-delay: 0.9s;" /> <rect x="480" y="90" class="b" style="animation-delay: 0.96s;" /> <rect x="510" y="90" class="b" style="animation-delay: 1.02s;" /> <rect x="540" y="90" class="b" style="animation-delay: 1.08s;" /> <rect x="600" y="90" class="b" style="animation-delay: 1.2s;" /> <rect x="630" y="90" class="b" style="animation-delay: 1.26s;" /> <rect x="660" y="90" class="b" style="animation-delay: 1.32s;" /> <rect x="690" y="90" class="b" style="animation-delay: 1.38s;" /> <rect x="1080" y="90" class="b" style="animation-delay: 2.16s;" /> <rect x="1110" y="90" class="b" style="animation-delay: 2.22s;" /> <rect x="1140" y="90" class="b" style="animation-delay: 2.28s;" /> <rect x="1170" y="90" class="b" style="animation-delay: 2.34s;" /> <rect x="1260" y="90" class="b" style="animation-delay: 2.52s;" /> <rect x="1290" y="90" class="b" style="animation-delay: 2.58s;" /> <rect x="1320" y="90" class="b" style="animation-delay: 2.64s;" /> <rect x="1350" y="90" class="b" style="animation-delay: 2.7s;" /> <rect x="1590" y="90" class="b" style="animation-delay: 3.18s;" /> <rect x="1620" y="90" class="b" style="animation-delay: 3.24s;" /> <rect x="1710" y="90" class="b" style="animation-delay: 3.42s;" /> <rect x="1740" y="90" class="b" style="animation-delay: 3.48s;" /> <rect x="1770" y="90" class="b" style="animation-delay: 3.54s;" /> <rect x="0" y="120" class="b" style="animation-delay: 0s;" /> <rect x="30" y="120" class="b" style="animation-delay: 0.08s;" /> <rect x="60" y="120" class="b" style="animation-delay: 0.16s;" /> <rect x="150" y="120" class="b" style="animation-delay: 0.4s;" /> <rect x="180" y="120" class="b" style="animation-delay: 0.48s;" /> <rect x="390" y="120" class="b" style="animation-delay: 1.04s;" /> <rect x="420" y="120" class="b" style="animation-delay: 1.12s;" /> <rect x="450" y="120" class="b" style="animation-delay: 1.2s;" /> <rect x="540" y="120" class="b" style="animation-delay: 1.44s;" /> <rect x="570" y="120" class="b" style="animation-delay: 1.52s;" /> <rect x="600" y="120" class="b" style="animation-delay: 1.6s;" /> <rect x="690" y="120" class="b" style="animation-delay: 1.84s;" /> <rect x="720" y="120" class="b" style="animation-delay: 1.92s;" /> <rect x="1050" y="120" class="b" style="animation-delay: 2.8s;" /> <rect x="1080" y="120" class="b" style="animation-delay: 2.88s;" /> <rect x="1170" y="120" class="b" style="animation-delay: 3.12s;" /> <rect x="1200" y="120" class="b" style="animation-delay: 3.2s;" /> <rect x="1230" y="120" class="b" style="animation-delay: 3.28s;" /> <rect x="1260" y="120" class="b" style="animation-delay: 3.36s;" /> <rect x="1350" y="120" class="b" style="animation-delay: 3.6s;" /> <rect x="1380" y="120" class="b" style="animation-delay: 3.68s;" /> <rect x="1560" y="120" class="b" style="animation-delay: 4.16s;" /> <rect x="1590" y="120" class="b" style="animation-delay: 4.24s;" /> <rect x="1620" y="120" class="b" style="animation-delay: 4.32s;" /> <rect x="1650" y="120" class="b" style="animation-delay: 4.4s;" /> <rect x="1680" y="120" class="b" style="animation-delay: 4.48s;" /> <rect x="1710" y="120" class="b" style="animation-delay: 4.56s;" /> <rect x="1770" y="120" class="b" style="animation-delay: 4.72s;" /> <rect x="0" y="150" class="b" style="animation-delay: 0s;" /> <rect x="60" y="150" class="b" style="animation-delay: 0.2s;" /> <rect x="90" y="150" class="b" style="animation-delay: 0.3s;" /> <rect x="120" y="150" class="b" style="animation-delay: 0.4s;" /> <rect x="150" y="150" class="b" style="animation-delay: 0.5s;" /> <rect x="180" y="150" class="b" style="animation-delay: 0.6s;" /> <rect x="210" y="150" class="b" style="animation-delay: 0.7s;" /> <rect x="360" y="150" class="b" style="animation-delay: 1.2s;" /> <rect x="390" y="150" class="b" style="animation-delay: 1.3s;" /> <rect x="450" y="150" class="b" style="animation-delay: 1.5s;" /> <rect x="480" y="150" class="b" style="animation-delay: 1.6s;" /> <rect x="510" y="150" class="b" style="animation-delay: 1.7s;" /> <rect x="540" y="150" class="b" style="animation-delay: 1.8s;" /> <rect x="600" y="150" class="b" style="animation-delay: 2s;" /> <rect x="630" y="150" class="b" style="animation-delay: 2.1s;" /> <rect x="660" y="150" class="b" style="animation-delay: 2.2s;" /> <rect x="690" y="150" class="b" style="animation-delay: 2.3s;" /> <rect x="720" y="150" class="b" style="animation-delay: 2.4s;" /> <rect x="750" y="150" class="b" style="animation-delay: 2.5s;" /> <rect x="1020" y="150" class="b" style="animation-delay: 3.4s;" /> <rect x="1050" y="150" class="b" style="animation-delay: 3.5s;" /> <rect x="1080" y="150" class="b" style="animation-delay: 3.6s;" /> <rect x="1110" y="150" class="b" style="animation-delay: 3.7s;" /> <rect x="1140" y="150" class="b" style="animation-delay: 3.8s;" /> <rect x="1170" y="150" class="b" style="animation-delay: 3.9s;" /> <rect x="1260" y="150" class="b" style="animation-delay: 4.2s;" /> <rect x="1290" y="150" class="b" style="animation-delay: 4.3s;" /> <rect x="1320" y="150" class="b" style="animation-delay: 4.4s;" /> <rect x="1350" y="150" class="b" style="animation-delay: 4.5s;" /> <rect x="1380" y="150" class="b" style="animation-delay: 4.6s;" /> <rect x="1410" y="150" class="b" style="animation-delay: 4.7s;" /> <rect x="1530" y="150" class="b" style="animation-delay: 5.1s;" /> <rect x="1560" y="150" class="b" style="animation-delay: 5.2s;" /> <rect x="1710" y="150" class="b" style="animation-delay: 5.7s;" /> <rect x="1740" y="150" class="b" style="animation-delay: 5.8s;" /> <rect x="1770" y="150" class="b" style="animation-delay: 5.9s;" /> <rect x="0" y="180" class="b" style="animation-delay: 0s;" /> <rect x="30" y="180" class="b" style="animation-delay: 0.12s;" /> <rect x="60" y="180" class="b" style="animation-delay: 0.24s;" /> <rect x="210" y="180" class="b" style="animation-delay: 0.84s;" /> <rect x="240" y="180" class="b" style="animation-delay: 0.96s;" /> <rect x="330" y="180" class="b" style="animation-delay: 1.32s;" /> <rect x="360" y="180" class="b" style="animation-delay: 1.44s;" /> <rect x="390" y="180" class="b" style="animation-delay: 1.56s;" /> <rect x="420" y="180" class="b" style="animation-delay: 1.68s;" /> <rect x="450" y="180" class="b" style="animation-delay: 1.8s;" /> <rect x="540" y="180" class="b" style="animation-delay: 2.16s;" /> <rect x="570" y="180" class="b" style="animation-delay: 2.28s;" /> <rect x="600" y="180" class="b" style="animation-delay: 2.4s;" /> <rect x="750" y="180" class="b" style="animation-delay: 3s;" /> <rect x="780" y="180" class="b" style="animation-delay: 3.12s;" /> <rect x="990" y="180" class="b" style="animation-delay: 3.96s;" /> <rect x="1020" y="180" class="b" style="animation-delay: 4.08s;" /> <rect x="1170" y="180" class="b" style="animation-delay: 4.68s;" /> <rect x="1200" y="180" class="b" style="animation-delay: 4.8s;" /> <rect x="1230" y="180" class="b" style="animation-delay: 4.92s;" /> <rect x="1260" y="180" class="b" style="animation-delay: 5.04s;" /> <rect x="1410" y="180" class="b" style="animation-delay: 5.64s;" /> <rect x="1440" y="180" class="b" style="animation-delay: 5.76s;" /> <rect x="1500" y="180" class="b" style="animation-delay: 6s;" /> <rect x="1530" y="180" class="b" style="animation-delay: 6.12s;" /> <rect x="1560" y="180" class="b" style="animation-delay: 6.24s;" /> <rect x="1590" y="180" class="b" style="animation-delay: 6.36s;" /> <rect x="1680" y="180" class="b" style="animation-delay: 6.72s;" /> <rect x="1710" y="180" class="b" style="animation-delay: 6.84s;" /> <rect x="1770" y="180" class="b" style="animation-delay: 7.08s;" /> <rect x="0" y="210" class="b" style="animation-delay: 0s;" /> <rect x="60" y="210" class="b" style="animation-delay: 0.28s;" /> <rect x="90" y="210" class="b" style="animation-delay: 0.42s;" /> <rect x="180" y="210" class="b" style="animation-delay: 0.84s;" /> <rect x="210" y="210" class="b" style="animation-delay: 0.98s;" /> <rect x="240" y="210" class="b" style="animation-delay: 1.12s;" /> <rect x="270" y="210" class="b" style="animation-delay: 1.26s;" /> <rect x="300" y="210" class="b" style="animation-delay: 1.4s;" /> <rect x="330" y="210" class="b" style="animation-delay: 1.54s;" /> <rect x="450" y="210" class="b" style="animation-delay: 2.1s;" /> <rect x="480" y="210" class="b" style="animation-delay: 2.24s;" /> <rect x="510" y="210" class="b" style="animation-delay: 2.38s;" /> <rect x="540" y="210" class="b" style="animation-delay: 2.52s;" /> <rect x="600" y="210" class="b" style="animation-delay: 2.8s;" /> <rect x="630" y="210" class="b" style="animation-delay: 2.94s;" /> <rect x="720" y="210" class="b" style="animation-delay: 3.36s;" /> <rect x="750" y="210" class="b" style="animation-delay: 3.5s;" /> <rect x="780" y="210" class="b" style="animation-delay: 3.64s;" /> <rect x="810" y="210" class="b" style="animation-delay: 3.78s;" /> <rect x="960" y="210" class="b" style="animation-delay: 4.48s;" /> <rect x="990" y="210" class="b" style="animation-delay: 4.62s;" /> <rect x="1020" y="210" class="b" style="animation-delay: 4.76s;" /> <rect x="1050" y="210" class="b" style="animation-delay: 4.9s;" /> <rect x="1140" y="210" class="b" style="animation-delay: 5.32s;" /> <rect x="1170" y="210" class="b" style="animation-delay: 5.46s;" /> <rect x="1260" y="210" class="b" style="animation-delay: 5.88s;" /> <rect x="1290" y="210" class="b" style="animation-delay: 6.02s;" /> <rect x="1380" y="210" class="b" style="animation-delay: 6.44s;" /> <rect x="1410" y="210" class="b" style="animation-delay: 6.58s;" /> <rect x="1440" y="210" class="b" style="animation-delay: 6.72s;" /> <rect x="1470" y="210" class="b" style="animation-delay: 6.86s;" /> <rect x="1500" y="210" class="b" style="animation-delay: 7s;" /> <rect x="1590" y="210" class="b" style="animation-delay: 7.42s;" /> <rect x="1620" y="210" class="b" style="animation-delay: 7.56s;" /> <rect x="1650" y="210" class="b" style="animation-delay: 7.7s;" /> <rect x="1680" y="210" class="b" style="animation-delay: 7.84s;" /> <rect x="1710" y="210" class="b" style="animation-delay: 7.98s;" /> <rect x="1740" y="210" class="b" style="animation-delay: 8.12s;" /> <rect x="1770" y="210" class="b" style="animation-delay: 8.26s;" /> <rect x="0" y="240" class="b" style="animation-delay: 0s;" /> <rect x="30" y="240" class="b" style="animation-delay: 0.16s;" /> <rect x="60" y="240" class="b" style="animation-delay: 0.32s;" /> <rect x="90" y="240" class="b" style="animation-delay: 0.48s;" /> <rect x="120" y="240" class="b" style="animation-delay: 0.64s;" /> <rect x="150" y="240" class="b" style="animation-delay: 0.8s;" /> <rect x="180" y="240" class="b" style="animation-delay: 0.96s;" /> <rect x="330" y="240" class="b" style="animation-delay: 1.76s;" /> <rect x="360" y="240" class="b" style="animation-delay: 1.92s;" /> <rect x="420" y="240" class="b" style="animation-delay: 2.24s;" /> <rect x="450" y="240" class="b" style="animation-delay: 2.4s;" /> <rect x="540" y="240" class="b" style="animation-delay: 2.88s;" /> <rect x="570" y="240" class="b" style="animation-delay: 3.04s;" /> <rect x="600" y="240" class="b" style="animation-delay: 3.2s;" /> <rect x="630" y="240" class="b" style="animation-delay: 3.36s;" /> <rect x="660" y="240" class="b" style="animation-delay: 3.52s;" /> <rect x="690" y="240" class="b" style="animation-delay: 3.68s;" /> <rect x="720" y="240" class="b" style="animation-delay: 3.84s;" /> <rect x="810" y="240" class="b" style="animation-delay: 4.32s;" /> <rect x="840" y="240" class="b" style="animation-delay: 4.48s;" /> <rect x="930" y="240" class="b" style="animation-delay: 4.96s;" /> <rect x="960" y="240" class="b" style="animation-delay: 5.12s;" /> <rect x="1050" y="240" class="b" style="animation-delay: 5.6s;" /> <rect x="1080" y="240" class="b" style="animation-delay: 5.76s;" /> <rect x="1110" y="240" class="b" style="animation-delay: 5.92s;" /> <rect x="1140" y="240" class="b" style="animation-delay: 6.08s;" /> <rect x="1170" y="240" class="b" style="animation-delay: 6.24s;" /> <rect x="1200" y="240" class="b" style="animation-delay: 6.4s;" /> <rect x="1230" y="240" class="b" style="animation-delay: 6.56s;" /> <rect x="1260" y="240" class="b" style="animation-delay: 6.72s;" /> <rect x="1290" y="240" class="b" style="animation-delay: 6.88s;" /> <rect x="1320" y="240" class="b" style="animation-delay: 7.04s;" /> <rect x="1350" y="240" class="b" style="animation-delay: 7.2s;" /> <rect x="1380" y="240" class="b" style="animation-delay: 7.36s;" /> <rect x="1500" y="240" class="b" style="animation-delay: 8s;" /> <rect x="1530" y="240" class="b" style="animation-delay: 8.16s;" /> <rect x="1560" y="240" class="b" style="animation-delay: 8.32s;" /> <rect x="1590" y="240" class="b" style="animation-delay: 8.48s;" /> <rect x="1770" y="240" class="b" style="animation-delay: 9.44s;" /> <rect x="0" y="270" class="b" style="animation-delay: 0s;" /> <rect x="180" y="270" class="b" style="animation-delay: 1.08s;" /> <rect x="210" y="270" class="b" style="animation-delay: 1.26s;" /> <rect x="300" y="270" class="b" style="animation-delay: 1.8s;" /> <rect x="330" y="270" class="b" style="animation-delay: 1.98s;" /> <rect x="360" y="270" class="b" style="animation-delay: 2.16s;" /> <rect x="390" y="270" class="b" style="animation-delay: 2.34s;" /> <rect x="420" y="270" class="b" style="animation-delay: 2.52s;" /> <rect x="450" y="270" class="b" style="animation-delay: 2.7s;" /> <rect x="480" y="270" class="b" style="animation-delay: 2.88s;" /> <rect x="510" y="270" class="b" style="animation-delay: 3.06s;" /> <rect x="540" y="270" class="b" style="animation-delay: 3.24s;" /> <rect x="720" y="270" class="b" style="animation-delay: 4.32s;" /> <rect x="750" y="270" class="b" style="animation-delay: 4.5s;" /> <rect x="780" y="270" class="b" style="animation-delay: 4.68s;" /> <rect x="810" y="270" class="b" style="animation-delay: 4.86s;" /> <rect x="840" y="270" class="b" style="animation-delay: 5.04s;" /> <rect x="870" y="270" class="b" style="animation-delay: 5.22s;" /> <rect x="900" y="270" class="b" style="animation-delay: 5.4s;" /> <rect x="930" y="270" class="b" style="animation-delay: 5.58s;" /> <rect x="960" y="270" class="b" style="animation-delay: 5.76s;" /> <rect x="990" y="270" class="b" style="animation-delay: 5.94s;" /> <rect x="1020" y="270" class="b" style="animation-delay: 6.12s;" /> <rect x="1050" y="270" class="b" style="animation-delay: 6.3s;" /> <rect x="1380" y="270" class="b" style="animation-delay: 8.28s;" /> <rect x="1410" y="270" class="b" style="animation-delay: 8.46s;" /> <rect x="1470" y="270" class="b" style="animation-delay: 8.82s;" /> <rect x="1500" y="270" class="b" style="animation-delay: 9s;" /> <rect x="1590" y="270" class="b" style="animation-delay: 9.54s;" /> <rect x="1620" y="270" class="b" style="animation-delay: 9.72s;" /> <rect x="1740" y="270" class="b" style="animation-delay: 10.44s;" /> <rect x="1770" y="270" class="b" style="animation-delay: 10.62s;" /> <rect x="0" y="300" class="b" style="animation-delay: 0s;" /> <rect x="30" y="300" class="b" style="animation-delay: 0.2s;" /> <rect x="150" y="300" class="b" style="animation-delay: 1s;" /> <rect x="180" y="300" class="b" style="animation-delay: 1.2s;" /> <rect x="210" y="300" class="b" style="animation-delay: 1.4s;" /> <rect x="240" y="300" class="b" style="animation-delay: 1.6s;" /> <rect x="270" y="300" class="b" style="animation-delay: 1.8s;" /> <rect x="300" y="300" class="b" style="animation-delay: 2s;" /> <rect x="540" y="300" class="b" style="animation-delay: 3.6s;" /> <rect x="570" y="300" class="b" style="animation-delay: 3.8s;" /> <rect x="690" y="300" class="b" style="animation-delay: 4.6s;" /> <rect x="720" y="300" class="b" style="animation-delay: 4.8s;" /> <rect x="1050" y="300" class="b" style="animation-delay: 7s;" /> <rect x="1080" y="300" class="b" style="animation-delay: 7.2s;" /> <rect x="1350" y="300" class="b" style="animation-delay: 9s;" /> <rect x="1380" y="300" class="b" style="animation-delay: 9.2s;" /> <rect x="1410" y="300" class="b" style="animation-delay: 9.4s;" /> <rect x="1440" y="300" class="b" style="animation-delay: 9.6s;" /> <rect x="1470" y="300" class="b" style="animation-delay: 9.8s;" /> <rect x="1500" y="300" class="b" style="animation-delay: 10s;" /> <rect x="1530" y="300" class="b" style="animation-delay: 10.2s;" /> <rect x="1560" y="300" class="b" style="animation-delay: 10.4s;" /> <rect x="1590" y="300" class="b" style="animation-delay: 10.6s;" /> <rect x="1620" y="300" class="b" style="animation-delay: 10.8s;" /> <rect x="1650" y="300" class="b" style="animation-delay: 11s;" /> <rect x="1710" y="300" class="b" style="animation-delay: 11.4s;" /> <rect x="1740" y="300" class="b" style="animation-delay: 11.6s;" /> <rect x="1770" y="300" class="b" style="animation-delay: 11.8s;" /> <rect x="0" y="330" class="b" style="animation-delay: 0s;" /> <rect x="30" y="330" class="b" style="animation-delay: 0.22s;" /> <rect x="60" y="330" class="b" style="animation-delay: 0.44s;" /> <rect x="120" y="330" class="b" style="animation-delay: 0.88s;" /> <rect x="150" y="330" class="b" style="animation-delay: 1.1s;" /> <rect x="300" y="330" class="b" style="animation-delay: 2.2s;" /> <rect x="330" y="330" class="b" style="animation-delay: 2.42s;" /> <rect x="510" y="330" class="b" style="animation-delay: 3.74s;" /> <rect x="540" y="330" class="b" style="animation-delay: 3.96s;" /> <rect x="570" y="330" class="b" style="animation-delay: 4.18s;" /> <rect x="600" y="330" class="b" style="animation-delay: 4.4s;" /> <rect x="660" y="330" class="b" style="animation-delay: 4.84s;" /> <rect x="690" y="330" class="b" style="animation-delay: 5.06s;" /> <rect x="720" y="330" class="b" style="animation-delay: 5.28s;" /> <rect x="750" y="330" class="b" style="animation-delay: 5.5s;" /> <rect x="1020" y="330" class="b" style="animation-delay: 7.48s;" /> <rect x="1050" y="330" class="b" style="animation-delay: 7.7s;" /> <rect x="1080" y="330" class="b" style="animation-delay: 7.92s;" /> <rect x="1110" y="330" class="b" style="animation-delay: 8.14s;" /> <rect x="1320" y="330" class="b" style="animation-delay: 9.68s;" /> <rect x="1350" y="330" class="b" style="animation-delay: 9.9s;" /> <rect x="1650" y="330" class="b" style="animation-delay: 12.1s;" /> <rect x="1680" y="330" class="b" style="animation-delay: 12.32s;" /> <rect x="1710" y="330" class="b" style="animation-delay: 12.54s;" /> <rect x="1770" y="330" class="b" style="animation-delay: 12.98s;" /> <rect x="0" y="360" class="b" style="animation-delay: 0s;" /> <rect x="60" y="360" class="b" style="animation-delay: 0.48s;" /> <rect x="90" y="360" class="b" style="animation-delay: 0.72s;" /> <rect x="120" y="360" class="b" style="animation-delay: 0.96s;" /> <rect x="150" y="360" class="b" style="animation-delay: 1.2s;" /> <rect x="180" y="360" class="b" style="animation-delay: 1.44s;" /> <rect x="270" y="360" class="b" style="animation-delay: 2.16s;" /> <rect x="300" y="360" class="b" style="animation-delay: 2.4s;" /> <rect x="330" y="360" class="b" style="animation-delay: 2.64s;" /> <rect x="360" y="360" class="b" style="animation-delay: 2.88s;" /> <rect x="480" y="360" class="b" style="animation-delay: 3.84s;" /> <rect x="510" y="360" class="b" style="animation-delay: 4.08s;" /> <rect x="600" y="360" class="b" style="animation-delay: 4.8s;" /> <rect x="630" y="360" class="b" style="animation-delay: 5.04s;" /> <rect x="660" y="360" class="b" style="animation-delay: 5.28s;" /> <rect x="750" y="360" class="b" style="animation-delay: 6s;" /> <rect x="780" y="360" class="b" style="animation-delay: 6.24s;" /> <rect x="990" y="360" class="b" style="animation-delay: 7.92s;" /> <rect x="1020" y="360" class="b" style="animation-delay: 8.16s;" /> <rect x="1110" y="360" class="b" style="animation-delay: 8.88s;" /> <rect x="1140" y="360" class="b" style="animation-delay: 9.12s;" /> <rect x="1290" y="360" class="b" style="animation-delay: 10.32s;" /> <rect x="1320" y="360" class="b" style="animation-delay: 10.56s;" /> <rect x="1350" y="360" class="b" style="animation-delay: 10.8s;" /> <rect x="1380" y="360" class="b" style="animation-delay: 11.04s;" /> <rect x="1620" y="360" class="b" style="animation-delay: 12.96s;" /> <rect x="1650" y="360" class="b" style="animation-delay: 13.2s;" /> <rect x="1710" y="360" class="b" style="animation-delay: 13.68s;" /> <rect x="1740" y="360" class="b" style="animation-delay: 13.92s;" /> <rect x="1770" y="360" class="b" style="animation-delay: 14.16s;" /> <rect x="0" y="390" class="b" style="animation-delay: 0s;" /> <rect x="30" y="390" class="b" style="animation-delay: 0.26s;" /> <rect x="60" y="390" class="b" style="animation-delay: 0.52s;" /> <rect x="180" y="390" class="b" style="animation-delay: 1.56s;" /> <rect x="210" y="390" class="b" style="animation-delay: 1.82s;" /> <rect x="240" y="390" class="b" style="animation-delay: 2.08s;" /> <rect x="270" y="390" class="b" style="animation-delay: 2.34s;" /> <rect x="360" y="390" class="b" style="animation-delay: 3.12s;" /> <rect x="390" y="390" class="b" style="animation-delay: 3.38s;" /> <rect x="450" y="390" class="b" style="animation-delay: 3.9s;" /> <rect x="480" y="390" class="b" style="animation-delay: 4.16s;" /> <rect x="510" y="390" class="b" style="animation-delay: 4.42s;" /> <rect x="540" y="390" class="b" style="animation-delay: 4.68s;" /> <rect x="570" y="390" class="b" style="animation-delay: 4.94s;" /> <rect x="600" y="390" class="b" style="animation-delay: 5.2s;" /> <rect x="660" y="390" class="b" style="animation-delay: 5.72s;" /> <rect x="690" y="390" class="b" style="animation-delay: 5.98s;" /> <rect x="720" y="390" class="b" style="animation-delay: 6.24s;" /> <rect x="750" y="390" class="b" style="animation-delay: 6.5s;" /> <rect x="780" y="390" class="b" style="animation-delay: 6.76s;" /> <rect x="810" y="390" class="b" style="animation-delay: 7.02s;" /> <rect x="960" y="390" class="b" style="animation-delay: 8.32s;" /> <rect x="990" y="390" class="b" style="animation-delay: 8.58s;" /> <rect x="1020" y="390" class="b" style="animation-delay: 8.84s;" /> <rect x="1050" y="390" class="b" style="animation-delay: 9.1s;" /> <rect x="1080" y="390" class="b" style="animation-delay: 9.36s;" /> <rect x="1110" y="390" class="b" style="animation-delay: 9.62s;" /> <rect x="1140" y="390" class="b" style="animation-delay: 9.88s;" /> <rect x="1170" y="390" class="b" style="animation-delay: 10.14s;" /> <rect x="1260" y="390" class="b" style="animation-delay: 10.92s;" /> <rect x="1290" y="390" class="b" style="animation-delay: 11.18s;" /> <rect x="1380" y="390" class="b" style="animation-delay: 11.96s;" /> <rect x="1410" y="390" class="b" style="animation-delay: 12.22s;" /> <rect x="1590" y="390" class="b" style="animation-delay: 13.78s;" /> <rect x="1620" y="390" class="b" style="animation-delay: 14.04s;" /> <rect x="1650" y="390" class="b" style="animation-delay: 14.3s;" /> <rect x="1680" y="390" class="b" style="animation-delay: 14.56s;" /> <rect x="1710" y="390" class="b" style="animation-delay: 14.82s;" /> <rect x="1770" y="390" class="b" style="animation-delay: 15.34s;" /> <rect x="0" y="420" class="b" style="animation-delay: 0s;" /> <rect x="60" y="420" class="b" style="animation-delay: 0.56s;" /> <rect x="90" y="420" class="b" style="animation-delay: 0.84s;" /> <rect x="150" y="420" class="b" style="animation-delay: 1.4s;" /> <rect x="180" y="420" class="b" style="animation-delay: 1.68s;" /> <rect x="270" y="420" class="b" style="animation-delay: 2.52s;" /> <rect x="300" y="420" class="b" style="animation-delay: 2.8s;" /> <rect x="330" y="420" class="b" style="animation-delay: 3.08s;" /> <rect x="360" y="420" class="b" style="animation-delay: 3.36s;" /> <rect x="390" y="420" class="b" style="animation-delay: 3.64s;" /> <rect x="420" y="420" class="b" style="animation-delay: 3.92s;" /> <rect x="450" y="420" class="b" style="animation-delay: 4.2s;" /> <rect x="600" y="420" class="b" style="animation-delay: 5.6s;" /> <rect x="630" y="420" class="b" style="animation-delay: 5.88s;" /> <rect x="660" y="420" class="b" style="animation-delay: 6.16s;" /> <rect x="810" y="420" class="b" style="animation-delay: 7.56s;" /> <rect x="840" y="420" class="b" style="animation-delay: 7.84s;" /> <rect x="930" y="420" class="b" style="animation-delay: 8.68s;" /> <rect x="960" y="420" class="b" style="animation-delay: 8.96s;" /> <rect x="1170" y="420" class="b" style="animation-delay: 10.92s;" /> <rect x="1200" y="420" class="b" style="animation-delay: 11.2s;" /> <rect x="1230" y="420" class="b" style="animation-delay: 11.48s;" /> <rect x="1260" y="420" class="b" style="animation-delay: 11.76s;" /> <rect x="1290" y="420" class="b" style="animation-delay: 12.04s;" /> <rect x="1320" y="420" class="b" style="animation-delay: 12.32s;" /> <rect x="1350" y="420" class="b" style="animation-delay: 12.6s;" /> <rect x="1380" y="420" class="b" style="animation-delay: 12.88s;" /> <rect x="1410" y="420" class="b" style="animation-delay: 13.16s;" /> <rect x="1440" y="420" class="b" style="animation-delay: 13.44s;" /> <rect x="1560" y="420" class="b" style="animation-delay: 14.56s;" /> <rect x="1590" y="420" class="b" style="animation-delay: 14.84s;" /> <rect x="1710" y="420" class="b" style="animation-delay: 15.96s;" /> <rect x="1740" y="420" class="b" style="animation-delay: 16.24s;" /> <rect x="1770" y="420" class="b" style="animation-delay: 16.52s;" /> <rect x="0" y="450" class="b" style="animation-delay: 0s;" /> <rect x="30" y="450" class="b" style="animation-delay: 0.3s;" /> <rect x="60" y="450" class="b" style="animation-delay: 0.6s;" /> <rect x="90" y="450" class="b" style="animation-delay: 0.9s;" /> <rect x="120" y="450" class="b" style="animation-delay: 1.2s;" /> <rect x="150" y="450" class="b" style="animation-delay: 1.5s;" /> <rect x="180" y="450" class="b" style="animation-delay: 1.8s;" /> <rect x="210" y="450" class="b" style="animation-delay: 2.1s;" /> <rect x="240" y="450" class="b" style="animation-delay: 2.4s;" /> <rect x="270" y="450" class="b" style="animation-delay: 2.7s;" /> <rect x="450" y="450" class="b" style="animation-delay: 4.5s;" /> <rect x="480" y="450" class="b" style="animation-delay: 4.8s;" /> <rect x="570" y="450" class="b" style="animation-delay: 5.7s;" /> <rect x="600" y="450" class="b" style="animation-delay: 6s;" /> <rect x="660" y="450" class="b" style="animation-delay: 6.6s;" /> <rect x="690" y="450" class="b" style="animation-delay: 6.9s;" /> <rect x="780" y="450" class="b" style="animation-delay: 7.8s;" /> <rect x="810" y="450" class="b" style="animation-delay: 8.1s;" /> <rect x="840" y="450" class="b" style="animation-delay: 8.4s;" /> <rect x="870" y="450" class="b" style="animation-delay: 8.7s;" /> <rect x="900" y="450" class="b" style="animation-delay: 9s;" /> <rect x="930" y="450" class="b" style="animation-delay: 9.3s;" /> <rect x="960" y="450" class="b" style="animation-delay: 9.6s;" /> <rect x="990" y="450" class="b" style="animation-delay: 9.9s;" /> <rect x="1140" y="450" class="b" style="animation-delay: 11.4s;" /> <rect x="1170" y="450" class="b" style="animation-delay: 11.7s;" /> <rect x="1440" y="450" class="b" style="animation-delay: 14.4s;" /> <rect x="1470" y="450" class="b" style="animation-delay: 14.7s;" /> <rect x="1530" y="450" class="b" style="animation-delay: 15.3s;" /> <rect x="1560" y="450" class="b" style="animation-delay: 15.6s;" /> <rect x="1590" y="450" class="b" style="animation-delay: 15.9s;" /> <rect x="1620" y="450" class="b" style="animation-delay: 16.2s;" /> <rect x="1680" y="450" class="b" style="animation-delay: 16.8s;" /> <rect x="1710" y="450" class="b" style="animation-delay: 17.1s;" /> <rect x="1770" y="450" class="b" style="animation-delay: 17.7s;" /> <rect x="0" y="480" class="b" style="animation-delay: 0s;" /> <rect x="270" y="480" class="b" style="animation-delay: 2.88s;" /> <rect x="300" y="480" class="b" style="animation-delay: 3.2s;" /> <rect x="420" y="480" class="b" style="animation-delay: 4.48s;" /> <rect x="450" y="480" class="b" style="animation-delay: 4.8s;" /> <rect x="480" y="480" class="b" style="animation-delay: 5.12s;" /> <rect x="510" y="480" class="b" style="animation-delay: 5.44s;" /> <rect x="540" y="480" class="b" style="animation-delay: 5.76s;" /> <rect x="570" y="480" class="b" style="animation-delay: 6.08s;" /> <rect x="600" y="480" class="b" style="animation-delay: 6.4s;" /> <rect x="630" y="480" class="b" style="animation-delay: 6.72s;" /> <rect x="660" y="480" class="b" style="animation-delay: 7.04s;" /> <rect x="690" y="480" class="b" style="animation-delay: 7.36s;" /> <rect x="720" y="480" class="b" style="animation-delay: 7.68s;" /> <rect x="750" y="480" class="b" style="animation-delay: 8s;" /> <rect x="780" y="480" class="b" style="animation-delay: 8.32s;" /> <rect x="990" y="480" class="b" style="animation-delay: 10.56s;" /> <rect x="1020" y="480" class="b" style="animation-delay: 10.88s;" /> <rect x="1110" y="480" class="b" style="animation-delay: 11.84s;" /> <rect x="1140" y="480" class="b" style="animation-delay: 12.16s;" /> <rect x="1170" y="480" class="b" style="animation-delay: 12.48s;" /> <rect x="1200" y="480" class="b" style="animation-delay: 12.8s;" /> <rect x="1410" y="480" class="b" style="animation-delay: 15.04s;" /> <rect x="1440" y="480" class="b" style="animation-delay: 15.36s;" /> <rect x="1470" y="480" class="b" style="animation-delay: 15.68s;" /> <rect x="1500" y="480" class="b" style="animation-delay: 16s;" /> <rect x="1530" y="480" class="b" style="animation-delay: 16.32s;" /> <rect x="1620" y="480" class="b" style="animation-delay: 17.28s;" /> <rect x="1650" y="480" class="b" style="animation-delay: 17.6s;" /> <rect x="1680" y="480" class="b" style="animation-delay: 17.92s;" /> <rect x="1710" y="480" class="b" style="animation-delay: 18.24s;" /> <rect x="1740" y="480" class="b" style="animation-delay: 18.56s;" /> <rect x="1770" y="480" class="b" style="animation-delay: 18.88s;" /> <rect x="0" y="510" class="b" style="animation-delay: 0s;" /> <rect x="30" y="510" class="b" style="animation-delay: 0.34s;" /> <rect x="240" y="510" class="b" style="animation-delay: 2.72s;" /> <rect x="270" y="510" class="b" style="animation-delay: 3.06s;" /> <rect x="300" y="510" class="b" style="animation-delay: 3.4s;" /> <rect x="330" y="510" class="b" style="animation-delay: 3.74s;" /> <rect x="390" y="510" class="b" style="animation-delay: 4.42s;" /> <rect x="420" y="510" class="b" style="animation-delay: 4.76s;" /> <rect x="780" y="510" class="b" style="animation-delay: 8.84s;" /> <rect x="810" y="510" class="b" style="animation-delay: 9.18s;" /> <rect x="960" y="510" class="b" style="animation-delay: 10.88s;" /> <rect x="990" y="510" class="b" style="animation-delay: 11.22s;" /> <rect x="1020" y="510" class="b" style="animation-delay: 11.56s;" /> <rect x="1050" y="510" class="b" style="animation-delay: 11.9s;" /> <rect x="1080" y="510" class="b" style="animation-delay: 12.24s;" /> <rect x="1110" y="510" class="b" style="animation-delay: 12.58s;" /> <rect x="1200" y="510" class="b" style="animation-delay: 13.6s;" /> <rect x="1230" y="510" class="b" style="animation-delay: 13.94s;" /> <rect x="1380" y="510" class="b" style="animation-delay: 15.64s;" /> <rect x="1410" y="510" class="b" style="animation-delay: 15.98s;" /> <rect x="1530" y="510" class="b" style="animation-delay: 17.34s;" /> <rect x="1560" y="510" class="b" style="animation-delay: 17.68s;" /> <rect x="1590" y="510" class="b" style="animation-delay: 18.02s;" /> <rect x="1620" y="510" class="b" style="animation-delay: 18.36s;" /> <rect x="1770" y="510" class="b" style="animation-delay: 20.06s;" /> <rect x="0" y="540" class="b" style="animation-delay: 0s;" /> <rect x="30" y="540" class="b" style="animation-delay: 0.36s;" /> <rect x="60" y="540" class="b" style="animation-delay: 0.72s;" /> <rect x="210" y="540" class="b" style="animation-delay: 2.52s;" /> <rect x="240" y="540" class="b" style="animation-delay: 2.88s;" /> <rect x="330" y="540" class="b" style="animation-delay: 3.96s;" /> <rect x="360" y="540" class="b" style="animation-delay: 4.32s;" /> <rect x="390" y="540" class="b" style="animation-delay: 4.68s;" /> <rect x="420" y="540" class="b" style="animation-delay: 5.04s;" /> <rect x="450" y="540" class="b" style="animation-delay: 5.4s;" /> <rect x="750" y="540" class="b" style="animation-delay: 9s;" /> <rect x="780" y="540" class="b" style="animation-delay: 9.36s;" /> <rect x="810" y="540" class="b" style="animation-delay: 9.72s;" /> <rect x="840" y="540" class="b" style="animation-delay: 10.08s;" /> <rect x="930" y="540" class="b" style="animation-delay: 11.16s;" /> <rect x="960" y="540" class="b" style="animation-delay: 11.52s;" /> <rect x="1110" y="540" class="b" style="animation-delay: 13.32s;" /> <rect x="1140" y="540" class="b" style="animation-delay: 13.68s;" /> <rect x="1170" y="540" class="b" style="animation-delay: 14.04s;" /> <rect x="1200" y="540" class="b" style="animation-delay: 14.4s;" /> <rect x="1230" y="540" class="b" style="animation-delay: 14.76s;" /> <rect x="1260" y="540" class="b" style="animation-delay: 15.12s;" /> <rect x="1350" y="540" class="b" style="animation-delay: 16.2s;" /> <rect x="1380" y="540" class="b" style="animation-delay: 16.56s;" /> <rect x="1410" y="540" class="b" style="animation-delay: 16.92s;" /> <rect x="1440" y="540" class="b" style="animation-delay: 17.28s;" /> <rect x="1500" y="540" class="b" style="animation-delay: 18s;" /> <rect x="1530" y="540" class="b" style="animation-delay: 18.36s;" /> <rect x="1620" y="540" class="b" style="animation-delay: 19.44s;" /> <rect x="1650" y="540" class="b" style="animation-delay: 19.8s;" /> <rect x="1740" y="540" class="b" style="animation-delay: 20.88s;" /> <rect x="1770" y="540" class="b" style="animation-delay: 21.24s;" /> <rect x="0" y="570" class="b" style="animation-delay: 0s;" /> <rect x="60" y="570" class="b" style="animation-delay: 0.76s;" /> <rect x="90" y="570" class="b" style="animation-delay: 1.14s;" /> <rect x="180" y="570" class="b" style="animation-delay: 2.28s;" /> <rect x="210" y="570" class="b" style="animation-delay: 2.66s;" /> <rect x="240" y="570" class="b" style="animation-delay: 3.04s;" /> <rect x="270" y="570" class="b" style="animation-delay: 3.42s;" /> <rect x="300" y="570" class="b" style="animation-delay: 3.8s;" /> <rect x="330" y="570" class="b" style="animation-delay: 4.18s;" /> <rect x="450" y="570" class="b" style="animation-delay: 5.7s;" /> <rect x="480" y="570" class="b" style="animation-delay: 6.08s;" /> <rect x="720" y="570" class="b" style="animation-delay: 9.12s;" /> <rect x="750" y="570" class="b" style="animation-delay: 9.5s;" /> <rect x="840" y="570" class="b" style="animation-delay: 10.64s;" /> <rect x="870" y="570" class="b" style="animation-delay: 11.02s;" /> <rect x="900" y="570" class="b" style="animation-delay: 11.4s;" /> <rect x="930" y="570" class="b" style="animation-delay: 11.78s;" /> <rect x="960" y="570" class="b" style="animation-delay: 12.16s;" /> <rect x="990" y="570" class="b" style="animation-delay: 12.54s;" /> <rect x="1080" y="570" class="b" style="animation-delay: 13.68s;" /> <rect x="1110" y="570" class="b" style="animation-delay: 14.06s;" /> <rect x="1260" y="570" class="b" style="animation-delay: 15.96s;" /> <rect x="1290" y="570" class="b" style="animation-delay: 16.34s;" /> <rect x="1320" y="570" class="b" style="animation-delay: 16.72s;" /> <rect x="1350" y="570" class="b" style="animation-delay: 17.1s;" /> <rect x="1440" y="570" class="b" style="animation-delay: 18.24s;" /> <rect x="1470" y="570" class="b" style="animation-delay: 18.62s;" /> <rect x="1500" y="570" class="b" style="animation-delay: 19s;" /> <rect x="1530" y="570" class="b" style="animation-delay: 19.38s;" /> <rect x="1560" y="570" class="b" style="animation-delay: 19.76s;" /> <rect x="1590" y="570" class="b" style="animation-delay: 20.14s;" /> <rect x="1620" y="570" class="b" style="animation-delay: 20.52s;" /> <rect x="1650" y="570" class="b" style="animation-delay: 20.9s;" /> <rect x="1680" y="570" class="b" style="animation-delay: 21.28s;" /> <rect x="1710" y="570" class="b" style="animation-delay: 21.66s;" /> <rect x="1740" y="570" class="b" style="animation-delay: 22.04s;" /> <rect x="1770" y="570" class="b" style="animation-delay: 22.42s;" /> <rect x="0" y="600" class="b" style="animation-delay: 0s;" /> <rect x="30" y="600" class="b" style="animation-delay: 0.4s;" /> <rect x="60" y="600" class="b" style="animation-delay: 0.8s;" /> <rect x="90" y="600" class="b" style="animation-delay: 1.2s;" /> <rect x="120" y="600" class="b" style="animation-delay: 1.6s;" /> <rect x="150" y="600" class="b" style="animation-delay: 2s;" /> <rect x="180" y="600" class="b" style="animation-delay: 2.4s;" /> <rect x="330" y="600" class="b" style="animation-delay: 4.4s;" /> <rect x="360" y="600" class="b" style="animation-delay: 4.8s;" /> <rect x="420" y="600" class="b" style="animation-delay: 5.6s;" /> <rect x="450" y="600" class="b" style="animation-delay: 6s;" /> <rect x="480" y="600" class="b" style="animation-delay: 6.4s;" /> <rect x="510" y="600" class="b" style="animation-delay: 6.8s;" /> <rect x="690" y="600" class="b" style="animation-delay: 9.2s;" /> <rect x="720" y="600" class="b" style="animation-delay: 9.6s;" /> <rect x="750" y="600" class="b" style="animation-delay: 10s;" /> <rect x="780" y="600" class="b" style="animation-delay: 10.4s;" /> <rect x="810" y="600" class="b" style="animation-delay: 10.8s;" /> <rect x="840" y="600" class="b" style="animation-delay: 11.2s;" /> <rect x="990" y="600" class="b" style="animation-delay: 13.2s;" /> <rect x="1020" y="600" class="b" style="animation-delay: 13.6s;" /> <rect x="1050" y="600" class="b" style="animation-delay: 14s;" /> <rect x="1080" y="600" class="b" style="animation-delay: 14.4s;" /> <rect x="1110" y="600" class="b" style="animation-delay: 14.8s;" /> <rect x="1140" y="600" class="b" style="animation-delay: 15.2s;" /> <rect x="1230" y="600" class="b" style="animation-delay: 16.4s;" /> <rect x="1260" y="600" class="b" style="animation-delay: 16.8s;" /> <rect x="1350" y="600" class="b" style="animation-delay: 18s;" /> <rect x="1380" y="600" class="b" style="animation-delay: 18.4s;" /> <rect x="1410" y="600" class="b" style="animation-delay: 18.8s;" /> <rect x="1440" y="600" class="b" style="animation-delay: 19.2s;" /> <rect x="1770" y="600" class="b" style="animation-delay: 23.6s;" /> <text fill="black" xml:space="preserve" font-family="-apple-system, BlinkMacSystemFont, 'Segoe UI', Roboto, Helvetica, Arial, sans-serif" font-size="90" font-weight="bold" letter-spacing="0em" > <tspan x="453.9" y="320.79" fill="#454853">Akshay <tspan fill="#58c9b9">Nair</tspan></tspan> </text> <style> @keyframes animation { 0% { opacity: 0.2; transform: scale(1); } 50% { opacity: 0.5; transform: scale(1.01); } 100% { opacity: 0.2; transform: scale(1); } } .b { fill: #58c9b9; width: 25px; height: 25px; transform-origin: 50% 50%; opacity: 0.2; animation: animation 2s infinite ease-in-out; } </style> </svg> 
